
        <svg xmlns="http://www.w3.org/2000/svg" xmlns:xlink="http://www.w3.org/1999/xlink" version="1.1" width="3127.6595744680853" height="1646.8085106382978" viewBox="0 0 3127.6595744680853 1646.8085106382978">
			
			<g transform="scale(6.382978723404255) translate(10, 10)">
				<defs id="SvgjsDefs4146"/><g id="SvgjsG4147" featureKey="rootContainer" transform="matrix(1,0,0,1,0,0)" fill="#000"><path xmlns="http://www.w3.org/2000/svg" fill-rule="evenodd" d=" M0,0 H470 V238 H0,0 z M2,2 H468 V236 H2,2 z M6,6 H464 V232 H6 z M8,8 H462 V230 H6,8 z "/></g><g id="SvgjsG4148" featureKey="symbolFeature-0" transform="matrix(33.01886970693857,0,0,33.01886970693857,22.66037558350701,36.231131473908235)" fill="#000"><g xmlns="http://www.w3.org/2000/svg"><g><circle cx="1.033" cy="1.554" r="0.144"/></g><g><circle cx="0.972" cy="2.041" r="0.144"/></g><g><circle cx="1.21" cy="1.131" r="0.144"/></g><g><circle cx="3.04" cy="1.393" r="0.144"/></g><g><circle cx="3.864" cy="1.675" r="0.144"/></g><g><circle cx="3.805" cy="2.256" r="0.144"/></g><g><circle cx="3.438" cy="3.139" r="0.144"/></g><g><circle cx="3.226" cy="0.752" r="0.144"/></g><g><circle cx="3.592" cy="1.195" r="0.144"/></g><g><circle cx="2.271" cy="1.662" r="0.144"/></g><g><circle cx="2.854" cy="0.561" r="0.144"/></g><g><circle cx="1.61" cy="0.752" r="0.144"/></g><g><path d="M1.818,4.254c-0.036,0-0.064-0.028-0.064-0.063V2.419l-0.69-0.744C1.04,1.649,1.041,1.608,1.066,1.584    C1.093,1.56,1.133,1.561,1.157,1.588l0.708,0.763c0.011,0.011,0.017,0.027,0.017,0.042v1.797C1.882,4.227,1.854,4.254,1.818,4.254    z"/></g><g><path d="M2.201,4.583c-0.036,0-0.064-0.029-0.064-0.065V2.149L1.165,1.177c-0.025-0.024-0.025-0.066,0-0.09    c0.025-0.025,0.065-0.025,0.09,0l0.991,0.991C2.258,2.09,2.265,2.106,2.265,2.123v2.395C2.265,4.553,2.236,4.583,2.201,4.583z"/></g><g><path d="M2.628,4.583c-0.036,0-0.064-0.029-0.064-0.065V1.319c0-0.017,0.006-0.034,0.019-0.045l0.481-0.481    c0.025-0.024,0.065-0.024,0.09,0c0.025,0.025,0.025,0.066,0,0.09L2.692,1.346v3.172C2.692,4.553,2.664,4.583,2.628,4.583z"/></g><g><path d="M3.036,4.254C3,4.254,2.971,4.227,2.971,4.191v-1.68c0-0.017,0.008-0.033,0.019-0.044l0.833-0.833    c0.026-0.026,0.066-0.026,0.091,0c0.025,0.024,0.025,0.065,0,0.09L3.1,2.538v1.653C3.1,4.227,3.072,4.254,3.036,4.254z"/></g><g><path d="M3.593,2.019c-0.017,0-0.033-0.005-0.045-0.017L3.019,1.473c-0.025-0.026-0.025-0.066,0-0.091    c0.024-0.025,0.065-0.025,0.091,0L3.638,1.91c0.024,0.026,0.024,0.065,0,0.092C3.625,2.014,3.608,2.019,3.593,2.019z"/></g><g><path d="M1.77,1.727c-0.017,0-0.033-0.006-0.046-0.019c-0.025-0.027-0.025-0.066,0-0.092l1.092-1.092    c0.025-0.026,0.066-0.026,0.091,0c0.025,0.025,0.025,0.065,0,0.09L1.815,1.708C1.802,1.72,1.786,1.727,1.77,1.727z"/></g><g><path d="M2.126,1.369c-0.016,0-0.032-0.006-0.044-0.019L1.634,0.902c-0.025-0.024-0.025-0.066,0-0.09    c0.024-0.024,0.065-0.024,0.09,0L2.172,1.26c0.024,0.024,0.024,0.066,0,0.09C2.159,1.363,2.143,1.369,2.126,1.369z"/></g><g><circle cx="2.129" cy="0.587" r="0.144"/></g><g><path d="M2.469,1.026c-0.016,0-0.032-0.006-0.045-0.019L2.153,0.736c-0.025-0.024-0.025-0.064,0-0.089    c0.025-0.025,0.066-0.025,0.091,0l0.271,0.271c0.025,0.024,0.025,0.066,0,0.09C2.502,1.02,2.485,1.026,2.469,1.026z"/></g><g><path d="M2.62,2.07c-0.017,0-0.033-0.006-0.045-0.02L2.271,1.747c-0.025-0.024-0.025-0.064,0-0.089    c0.024-0.025,0.065-0.025,0.091,0l0.303,0.304c0.025,0.024,0.025,0.065,0,0.089C2.652,2.064,2.636,2.07,2.62,2.07z"/></g><g><circle cx="3.031" cy="1.966" r="0.144"/></g><g><path d="M3.301,2.296c-0.016,0-0.033-0.007-0.045-0.02L3.031,2.052c-0.025-0.026-0.025-0.065,0-0.091    c0.025-0.025,0.066-0.025,0.091,0l0.225,0.224c0.026,0.026,0.026,0.066,0,0.091C3.334,2.289,3.318,2.296,3.301,2.296z"/></g><g><path d="M3.219,1.647c-0.017,0-0.033-0.006-0.045-0.02c-0.025-0.024-0.025-0.065,0-0.091L3.521,1.19    c0.026-0.026,0.066-0.026,0.091,0c0.025,0.025,0.025,0.065,0,0.09L3.265,1.627C3.252,1.641,3.235,1.647,3.219,1.647z"/></g><g><path d="M1.817,2.951c-0.016,0-0.032-0.006-0.045-0.019L0.926,2.085c-0.025-0.024-0.025-0.064,0-0.089    c0.025-0.025,0.065-0.025,0.091,0l0.846,0.846c0.025,0.024,0.025,0.066,0,0.09C1.851,2.945,1.834,2.951,1.817,2.951z"/></g><g><circle cx="1.235" cy="2.86" r="0.144"/></g><g><path d="M1.816,3.505c-0.017,0-0.033-0.007-0.046-0.02L1.189,2.905c-0.025-0.025-0.025-0.066,0-0.09    c0.025-0.026,0.065-0.026,0.091,0l0.58,0.58c0.025,0.024,0.025,0.066,0,0.091C1.848,3.498,1.832,3.505,1.816,3.505z"/></g><g><path d="M3.043,3.1c-0.017,0-0.033-0.006-0.046-0.019c-0.024-0.025-0.024-0.066,0-0.09L3.72,2.269    c0.024-0.026,0.065-0.026,0.09,0c0.024,0.024,0.024,0.064,0,0.09L3.088,3.082C3.076,3.094,3.059,3.1,3.043,3.1z"/></g><g><path d="M3.036,3.605c-0.016,0-0.033-0.005-0.045-0.018c-0.025-0.026-0.025-0.065,0-0.091l0.403-0.403    c0.024-0.024,0.065-0.024,0.091,0c0.024,0.026,0.024,0.066,0,0.092L3.082,3.587C3.069,3.601,3.052,3.605,3.036,3.605z"/></g></g></g><g id="SvgjsG4149" featureKey="nameFeature-0" transform="matrix(0.8496617613471718,0,0,0.8496617613471718,174.66013480928078,69.80405967413454)" fill="#000"><path d="M13.6 16.4 l0 23.6 l-5.2 0 l0 -23.6 l-8 0 l0 -4.4 l21.2 0 l0 3 l-1.4 1.4 l-6.6 0 z M29.175 40 l0 -28 l19.2 0 l0 3 l-1.4 1.4 l-12.6 0 l0 7.2 l10.2 0 l0 4.4 l-10.2 0 l0 7.6 l14 0 l0 4.4 l-19.2 0 z M60.75 19 l0 14 c0 1.4 1.2 2.6 2.8 2.6 l11.6 0 l0 4.4 l-13 0 c-4 0 -6.6 -2.6 -6.6 -6.2 l0 -15.6 c0 -3.6 2.6 -6.2 6.6 -6.2 l13 0 l0 3 l-1.4 1.4 l-10.2 0 c-1.6 0 -2.8 1.2 -2.8 2.6 z M83.125 12 l5.2 0 l0 11.6 l10.4 0 l0 -11.6 l5.2 0 l0 28 l-5.2 0 l0 -12 l-10.4 0 l0 12 l-5.2 0 l0 -28 z M113.9 12 l5.2 0 l0 23.6 l13.6 0 l0 4.4 l-18.8 0 l0 -28 z M145.47500000000002 40 l-5.2 0 l0 -28 l5.2 0 l0 28 z M168.05000000000004 27.8 l-7.4 0 l0 7.8 l7.4 0 c2 0 3.2 -1.2 3.2 -2.8 l0 -2.2 c0 -1.6 -1.2 -2.8 -3.2 -2.8 z M171.65000000000003 25 l0 0.4 s4.8 0.6 4.8 5.8 l0 2.8 c0 3.2 -2.8 6 -6.8 6 l-14.2 0 l0 -28 l13 0 c4 0 6.8 2.8 6.8 6 l0 2.6 c0 3.4 -3.6 4.4 -3.6 4.4 z M166.85000000000002 16.4 l-6.2 0 l0 7 l6.2 0 c2 0 3.2 -1.2 3.2 -2.8 l0 -1.4 c0 -1.6 -1.2 -2.8 -3.2 -2.8 z M185.02500000000003 40 l0 -28 l19.2 0 l0 3 l-1.4 1.4 l-12.6 0 l0 7.2 l10.2 0 l0 4.4 l-10.2 0 l0 7.6 l14 0 l0 4.4 l-19.2 0 z M232.80000000000004 23.4 c0 5 -4.6 5.8 -4.6 5.8 l5.4 8.6 l0 2.2 l-5.2 0 l-5.4 -10.4 l-5.6 0 l0 10.4 l-5.2 0 l0 -28 l14 0 c4 0 6.6 2.6 6.6 6.2 l0 5.2 z M217.40000000000003 16.4 l0 8.8 l7.4 0 c1.6 0 2.8 -1.2 2.8 -2.6 l0 -3.6 c0 -1.4 -1.2 -2.6 -2.8 -2.6 l-7.4 0 z M252.77500000000003 16.4 l0 23.6 l-5.2 0 l0 -23.6 l-8 0 l0 -4.4 l21.2 0 l0 3 l-1.4 1.4 l-6.6 0 z M279.95000000000005 31.6 l0 8.4 l-5.2 0 l0 -8.4 l-8.8 -17.4 l0 -2.2 l5.2 0 l6 14.4 l0.4 0 l6 -14.4 l5.2 0 l0 2.2 z"/></g><g id="SvgjsG4150" featureKey="sloganFeature-0" transform="matrix(0.85,0,0,0.85,202.77599995136262,118.90000081062317)" fill="#000"><path d="M7.76 11.4 c1.38 0 2.5 1.12 2.5 2.5 l0 3.62 c0 1.38 -1.12 2.48 -2.5 2.48 l-6.32 0 l0 -3.2 l5.6 0 l0 -2.18 l-3.12 0 c-1.38 0 -2.48 -1.12 -2.48 -2.5 l0 -3.62 c0 -1.38 1.12 -2.5 2.48 -2.5 l6.34 0 l0 3.22 l-5.62 0 l0 2.18 l3.12 0 z M21.279 6 c1.36 0 2.52 1.12 2.52 2.5 l-0.04 9.02 c0 1.38 -1.12 2.48 -2.5 2.48 l-4.92 0 c-1.36 0 -2.48 -1.1 -2.48 -2.48 l0 -9.02 c0 -1.38 1.12 -2.5 2.48 -2.5 l4.94 0 z M20.559 16.8 l0 -7.58 l-3.5 0 l0 7.58 l3.5 0 z M36.158 9.22 l-5.6 0 l0 2.18 l4.02 0 l0 3.2 l-4.02 0 l0 5.4 l-3.2 0 l0 -14 l8.8 0 l0 3.22 z M39.757 6 l9.92 0 l0 3.22 l-3.36 0 l0 10.78 l-3.2 0 l0 -10.78 l-3.36 0 l0 -3.22 z M64.536 12.86 l1.34 -6.86 l3.2 0 l-2.72 14 l-3.2 0 l-1.98 -7.7 l-1.96 7.7 l-3.22 0 l-2.72 -14 l3.22 0 l1.32 6.86 l1.76 -6.86 l3.22 0 z M77.515 6 l3.9 14 l-3.2 0 l-0.56 -2.02 l-3.46 0 l-0.56 2.02 l-3.2 0 l3.9 -14 l3.18 0 z M75.095 14.719999999999999 l1.66 0 l-0.84 -2.98 z M91.614 6 c1.38 0 2.5 1.12 2.5 2.5 l0 5.26 c0 1.06 -0.66 1.96 -1.58 2.32 l1.58 3.92 l-3.4 0 l-1.52 -3.74 l-1.78 0 l0 3.74 l-3.2 0 l0 -14 l7.4 0 z M90.254 13.04 c0.36 0 0.66 -0.28 0.66 -0.64 l0 -2.54 c0 -0.36 -0.3 -0.64 -0.66 -0.64 l-2.84 0 l0 3.82 l2.84 0 z M106.45299999999999 9.22 l-5.6 0 l0 2.18 l4.02 0 l0 3.2 l-4.02 0 l0 2.2 l5.6 0 l0 3.2 l-8.8 0 l0 -14 l8.8 0 l0 3.22 z M121.051 11.4 c1.38 0 2.5 1.12 2.5 2.5 l0 3.62 c0 1.38 -1.12 2.48 -2.5 2.48 l-6.32 0 l0 -3.2 l5.6 0 l0 -2.18 l-3.12 0 c-1.38 0 -2.48 -1.12 -2.48 -2.5 l0 -3.62 c0 -1.38 1.12 -2.5 2.48 -2.5 l6.34 0 l0 3.22 l-5.62 0 l0 2.18 l3.12 0 z M134.57 6 c1.36 0 2.52 1.12 2.52 2.5 l-0.04 9.02 c0 1.38 -1.12 2.48 -2.5 2.48 l-4.92 0 c-1.36 0 -2.48 -1.1 -2.48 -2.48 l0 -9.02 c0 -1.38 1.12 -2.5 2.48 -2.5 l4.94 0 z M133.85 16.8 l0 -7.58 l-3.5 0 l0 7.58 l3.5 0 z M143.849 6 l0 10.8 l5.16 0 l0 3.2 l-8.36 0 l0 0 l0 -14 l3.2 0 z M159.308 16.8 l0 -10.8 l3.2 0 l0 11.52 c0 1.38 -1.12 2.48 -2.5 2.48 l-4.92 0 c-1.38 0 -2.48 -1.1 -2.48 -2.48 l0 -11.52 l3.2 0 l0 10.8 l3.5 0 z M166.107 6 l9.92 0 l0 3.22 l-3.36 0 l0 10.78 l-3.2 0 l0 -10.78 l-3.36 0 l0 -3.22 z M182.826 6 l0 14 l-3.2 0 l0 -14 l3.2 0 z M193.84500000000003 6 c1.36 0 2.52 1.12 2.52 2.5 l-0.04 9.02 c0 1.38 -1.12 2.48 -2.5 2.48 l-4.92 0 c-1.36 0 -2.48 -1.1 -2.48 -2.48 l0 -9.02 c0 -1.38 1.12 -2.5 2.48 -2.5 l4.94 0 z M193.125 16.8 l0 -7.58 l-3.5 0 l0 7.58 l3.5 0 z M206.62400000000002 6 l3.2 0 l0 14 l-3.2 0 l-3.5 -7.28 l0 7.28 l-3.2 0 l0 -14 l3.2 0 l3.5 7.3 l0 -7.3 z M219.743 11.4 c1.38 0 2.5 1.12 2.5 2.5 l0 3.62 c0 1.38 -1.12 2.48 -2.5 2.48 l-6.32 0 l0 -3.2 l5.6 0 l0 -2.18 l-3.12 0 c-1.38 0 -2.48 -1.12 -2.48 -2.5 l0 -3.62 c0 -1.38 1.12 -2.5 2.48 -2.5 l6.34 0 l0 3.22 l-5.62 0 l0 2.18 l3.12 0 z"/></g><g id="SvgjsG4151" featureKey="sloganFeature-1" transform="matrix(0.85,0,0,0.85,224.77599995136262,140.90000040531157)" fill="#000"><path d="M1.44 6 l9.92 0 l0 3.22 l-3.36 0 l0 10.78 l-3.2 0 l0 -10.78 l-3.36 0 l0 -3.22 z M23.759 9.22 l-5.6 0 l0 2.18 l4.02 0 l0 3.2 l-4.02 0 l0 2.2 l5.6 0 l0 3.2 l-8.8 0 l0 -14 l8.8 0 l0 3.22 z M34.058 15.2 l3.2 0 l0 2.3 c0 1.38 -1.12 2.5 -2.5 2.5 l-4.9 0 c-1.38 0 -2.5 -1.12 -2.5 -2.5 l0 -9 c0 -1.38 1.12 -2.5 2.5 -2.5 l4.9 0 c1.38 0 2.5 1.12 2.5 2.5 l0 2.3 l-3.2 0 l0 -1.58 l-3.5 0 l0 7.58 l3.5 0 l0 -1.6 z M47.557 11.4 l0 -5.4 l3.2 0 l0 14 l-3.2 0 l0 -5.4 l-3.5 0 l0 5.4 l-3.2 0 l0 -14 l3.2 0 l0 5.4 l3.5 0 z M57.556000000000004 6 l0 10.8 l5.16 0 l0 3.2 l-8.36 0 l0 0 l0 -14 l3.2 0 z M69.515 6 l0 14 l-3.2 0 l0 -14 l3.2 0 z M80.51400000000001 6 c1.38 0 2.5 1.12 2.5 2.5 l0 2.64 c0 0.92 -0.66 1.7 -1.58 1.84 l-0.12 0.02 l0.12 0.02 c0.92 0.16 1.58 0.94 1.58 1.84 l0 2.66 c0 1.36 -1.12 2.48 -2.5 2.48 l-7.4 0 l0 -14 l7.4 0 z M79.81400000000001 16.14 l0 -0.86 c0 -0.38 -0.3 -0.66 -0.66 -0.66 l-2.84 0 l0 2.18 l2.84 0 c0.36 0 0.66 -0.3 0.66 -0.66 z M79.81400000000001 10.74 l0 -0.86 c0 -0.36 -0.3 -0.66 -0.66 -0.66 l-2.84 0 l0 2.18 l2.84 0 c0.36 0 0.66 -0.3 0.66 -0.66 z M95.313 9.22 l-5.6 0 l0 2.18 l4.02 0 l0 3.2 l-4.02 0 l0 2.2 l5.6 0 l0 3.2 l-8.8 0 l0 -14 l8.8 0 l0 3.22 z M106.31200000000001 6 c1.38 0 2.5 1.12 2.5 2.5 l0 5.26 c0 1.06 -0.66 1.96 -1.58 2.32 l1.58 3.92 l-3.4 0 l-1.52 -3.74 l-1.78 0 l0 3.74 l-3.2 0 l0 -14 l7.4 0 z M104.95200000000001 13.04 c0.36 0 0.66 -0.28 0.66 -0.64 l0 -2.54 c0 -0.36 -0.3 -0.64 -0.66 -0.64 l-2.84 0 l0 3.82 l2.84 0 z M112.351 6 l9.92 0 l0 3.22 l-3.36 0 l0 10.78 l-3.2 0 l0 -10.78 l-3.36 0 l0 -3.22 z M131.37 11.1 l2.3 -5.1 l3.2 0 l-3.9 8.66 l0 5.34 l-3.2 0 l0 -5.34 l-3.9 -8.66 l3.22 0 z M140.769 17.46 l2.46 0 l0 2.54 l-2.46 0 l0 -2.54 z M153.728 15.2 l3.2 0 l0 2.3 c0 1.38 -1.12 2.5 -2.5 2.5 l-4.9 0 c-1.38 0 -2.5 -1.12 -2.5 -2.5 l0 -9 c0 -1.38 1.12 -2.5 2.5 -2.5 l4.9 0 c1.38 0 2.5 1.12 2.5 2.5 l0 2.3 l-3.2 0 l0 -1.58 l-3.5 0 l0 7.58 l3.5 0 l0 -1.6 z M167.947 6 c1.36 0 2.52 1.12 2.52 2.5 l-0.04 9.02 c0 1.38 -1.12 2.48 -2.5 2.48 l-4.92 0 c-1.36 0 -2.48 -1.1 -2.48 -2.48 l0 -9.02 c0 -1.38 1.12 -2.5 2.48 -2.5 l4.94 0 z M167.22699999999998 16.8 l0 -7.58 l-3.5 0 l0 7.58 l3.5 0 z"/></g>
			</g>
		</svg>
	