<svg xmlns="http://www.w3.org/2000/svg" viewBox="0 0 512 512" id="cloud">
  <defs>
    <linearGradient id="a" x1="256" x2="256" y1="12.71" y2="486.843" gradientUnits="userSpaceOnUse">
      <stop offset="0" stop-color="#00efd1"></stop>
      <stop offset="1" stop-color="#00acea"></stop>
    </linearGradient>
  </defs>
  <g>
    <path fill="url(#a)" d="M394.372,145.562a140.277,140.277,0,0,0-277.189.01A93.233,93.233,0,0,0,119.95,332H204v38H161.557A7.321,7.321,0,0,0,154,377.628v38.2a31.3,31.3,0,0,0-15.228,8.543,32.463,32.463,0,1,0,46.02,0A35.055,35.055,0,0,0,170,415.825V386h41.539A8.73,8.73,0,0,0,220,377.628V332h28v89.339a32.505,32.505,0,1,0,16,0V332h28v45.628A8.73,8.73,0,0,0,300.461,386H342v29.825a35.031,35.031,0,0,0-14.784,8.543,32.754,32.754,0,1,0,46.009,0A31.291,31.291,0,0,0,358,415.825v-38.2A7.322,7.322,0,0,0,350.443,370H308V332h84.623c51.484,0,93.082-42.391,92.73-93.875a93.251,93.251,0,0,0-90.981-92.563ZM173.25,459.067a16.536,16.536,0,1,1-12.122-28.207c.143.007.284.021.429.021s.285-.014.428-.021a16.519,16.519,0,0,1,11.265,28.207Zm99.286-6.178A16.536,16.536,0,1,1,244.307,441.2h0a16.415,16.415,0,0,1,11.265-4.823c.142.008.283.022.428.022s.286-.014.428-.022a16.509,16.509,0,0,1,16.108,16.516Zm94.443-5.514a16.536,16.536,0,1,1-28.229-11.692h0a16.412,16.412,0,0,1,11.264-4.822c.143.007.284.021.428.021s.286-.014.429-.021a16.507,16.507,0,0,1,16.107,16.515ZM392.555,312H308V209.683a8,8,0,0,0-16,0V312H264V209.683a8,8,0,0,0-16,0V312H220V209.683a8,8,0,0,0-16,0V312H119.958a73.434,73.434,0,0,1-73.31-72.731A72.853,72.853,0,0,1,119.445,166h6.575a10.207,10.207,0,0,0,9.958-9.326A121.1,121.1,0,0,1,256,46.634,120.074,120.074,0,0,1,375.51,156.613,10.192,10.192,0,0,0,385.475,166h6.571c40.145,0,73.03,32.352,73.307,72.5A72.948,72.948,0,0,1,392.555,312Z"></path>
  </g>
</svg>
