<svg xmlns="http://www.w3.org/2000/svg" enable-background="new 0 0 512 512" viewBox="0 0 512 512" id="digital-marketing">
  <linearGradient id="a" x1="41.486" x2="470.449" y1="48.729" y2="477.692" gradientTransform="matrix(1 0 0 -1 0 512)" gradientUnits="userSpaceOnUse">
    <stop offset="0" stop-color="#0095da"></stop>
    <stop offset=".5" stop-color="#00aeee"></stop>
    <stop offset="1" stop-color="#2bc4f3"></stop>
  </linearGradient>
  <path fill="url(#a)" d="M442.002,10.038c0-5.563-4.475-10.039-9.999-10.039H79.972c-5.523,0-9.998,4.475-9.998,9.998v43.783h372.027V10.038H442.002z M106.465,30.922h-6.74c-2.228,0-4.032-1.803-4.032-4.032s1.803-4.032,4.032-4.032h6.74c2.228,0,4.032,1.803,4.032,4.032S108.694,30.922,106.465,30.922z M139.159,30.922h-6.74c-2.229,0-4.032-1.803-4.032-4.032s1.803-4.032,4.032-4.032h6.74c2.228,0,4.032,1.803,4.032,4.032S141.386,30.922,139.159,30.922z M171.847,30.922h-6.736c-2.228,0-4.032-1.803-4.032-4.032s1.803-4.032,4.032-4.032h6.736c2.229,0,4.032,1.803,4.032,4.032S174.076,30.922,171.847,30.922z M412.25,30.922H227.718c-2.229,0-4.032-1.803-4.032-4.032s1.803-4.032,4.032-4.032H412.25c2.228,0,4.032,1.803,4.032,4.032S414.478,30.922,412.25,30.922z M470.477,105.665h-20.4v8.063h20.4c3.306,0,6.088,2.742,6.088,6.007v284.181H35.436V119.735c0-3.306,2.701-6.007,5.967-6.007h20.52v-8.063h-20.52c-7.741,0-14.029,6.33-14.029,14.069v323.569c0,7.78,6.248,14.069,14.029,14.069H206.17l-20.923,46.563h-11.651c-2.217,0-4.032,1.814-4.032,4.032c0,2.217,1.814,4.032,4.032,4.032h164.728c2.217,0,4.032-1.814,4.032-4.032c0-2.217-1.814-4.032-4.032-4.032h-11.651l-20.965-46.563h164.728c7.78,0,14.151-6.289,14.151-14.069c0-68.294,0.04-270.434,0.04-323.569C484.627,111.995,478.216,105.665,470.477,105.665z M255.96,417.865c6.717,0,11.934,5.439,11.934,11.892c0,6.652-5.281,11.933-11.934,11.933c-6.491,0-11.933-5.281-11.933-11.933C244.026,423.394,249.344,417.865,255.96,417.865z M203.107,429.758c0-6.614,5.6-11.892,11.933-11.892c6.579,0,11.933,5.373,11.933,11.892c0,6.652-5.321,11.933-11.933,11.933C208.55,441.691,203.107,436.41,203.107,429.758z M317.802,503.937H194.116l20.883-46.564h81.88L317.802,503.937z M296.879,441.691c-6.491,0-11.892-5.281-11.892-11.933c0-6.539,5.483-11.892,11.892-11.892c6.418,0,11.933,5.177,11.933,11.892C308.813,436.41,303.531,441.691,296.879,441.691z M269.47,120.135c-1.265-8.662-3.619-32.682,4.905-32.682c10.346,0,36.429,31.17,59.812,87.623c24.697,59.63,27.322,101.437,18.331,105.161c-12.04,5.03-38.897-40.927-45.076-52.528l1.166-0.483c19.56-8.099,28.882-30.602,20.779-50.166c-8.099-19.556-30.598-28.89-50.166-20.779l-1.165,0.483C274.021,143.533,271.065,131.067,269.47,120.135z M200.96,270.93l-28.761-69.432l87.894-99.617c-0.765,27.351,12.844,68.313,23.538,94.135c10.614,25.626,29.97,64.342,49.917,83.201L200.96,270.93z M305.521,219.777l-1.816,0.753c-4.384-8.703-8.635-17.965-12.625-27.6c-3.991-9.636-7.534-19.19-10.588-28.448l1.817-0.753c15.452-6.39,33.233,0.965,39.63,16.417C328.336,195.6,320.974,213.379,305.521,219.777z M108.607,241.592c-0.478-1.158,0.06-2.497,1.233-2.98l8.239-3.409l20.781,50.169l-8.24,3.41c-1.177,0.491-2.502-0.082-2.976-1.233L108.607,241.592z M69.986,395.853h372.027V61.842H69.986V395.853z M404.158,232.133c-0.728,1.94-2.887,3.111-5.201,2.338l-19.957-7.499c-2.056-0.806-3.145-3.103-2.338-5.201c0.766-2.096,3.104-3.145,5.201-2.338l19.956,7.499C403.876,227.699,404.964,230.036,404.158,232.133z M407.585,184.602c2.177,0,3.991,1.734,4.032,3.951c0.04,2.217-1.693,4.072-3.951,4.112l-21.326,0.484c0,0-0.04,0-0.081,0c-2.177,0-3.991-1.734-4.032-3.951c-0.04-2.217,1.734-4.072,3.951-4.112l21.326-0.484C407.544,184.602,407.544,184.602,407.585,184.602z M402.747,146.665c0.887,2.056-0.121,4.435-2.177,5.281l-19.673,8.144c-2.342,0.899-4.495-0.26-5.281-2.177c-0.847-2.056,0.121-4.435,2.177-5.281l19.714-8.144C399.562,143.642,401.9,144.61,402.747,146.665z M358.279,125.419l15.441-14.755c1.613-1.532,4.153-1.492,5.684,0.121c1.532,1.613,1.492,4.153-0.121,5.725l-15.4,14.715c-1.579,1.501-4.054,1.55-5.725-0.121C356.627,129.491,356.667,126.951,358.279,125.419z M329.212,106.673L338,87.281c0.927-2.056,3.306-2.943,5.322-2.016c2.056,0.927,2.943,3.306,2.016,5.322l-8.788,19.432c-0.887,1.929-3.131,2.971-5.362,2.016C329.171,111.107,328.284,108.729,329.212,106.673z M106.753,231.165l8.385-3.467c-1.385-5.347,1.467-10.262,6.007-12.134l43.944-18.222C274.499,73.182,266.55,81.613,269.707,80.307c18.988-7.902,50.595,40.153,71.922,91.677c21.367,51.522,33.018,107.843,13.99,115.704c-3.935,1.639,10.504,1.331-156.745-8.828l-1.774,0.766c0.484,3.104-0.161,5.564-0.685,7.459c-1.318,5.003-0.108,8.011,4.434,10.683c7.342,4.231,10.469,10.846,8.184,19.714c-1.421,5.404,0.178,8.228,4.435,10.684c7.712,4.444,10.431,11.325,8.144,19.714c-1.353,5.134,0.076,8.165,4.434,10.644c2.379,1.411,5.644,3.306,7.741,8.345c0.789,1.895,0.035,4.268-2.177,5.281l-32.212,13.304c-5.318,2.279-12.169-0.089-14.675-6.047l-33.743-81.517c-3.588,0-6.934-1.975-8.829-5.16l-8.426,3.508c-5.584,2.268-11.46-0.547-13.546-5.604l-19.028-45.959C98.962,239.371,101.496,233.335,106.753,231.165z M196.796,304.718c4.475,2.601,5.781,5.622,4.433,10.685c-2.268,8.518,0.527,15.287,8.173,19.721c4.563,2.654,5.738,5.73,4.414,10.689c-3.559,13.439,5.522,17.621,9.98,20.815l-27.481,11.382c-1.611,0.677-3.46-0.091-4.126-1.685l-33.473-80.811c-1.979,0.819,29.223-12.104,30.418-12.599c-0.106,0.653-0.283,1.33-0.492,2.115C186.353,293.687,189.292,300.364,196.796,304.718z M124.226,223.013l41.102-17.026l27.601,66.629c-8.81,3.65,21.943-9.089-41.104,17.027c-1.154,0.465-2.5-0.071-2.98-1.237C124.277,226.529,120.168,224.687,124.226,223.013z"></path>
</svg>
