<svg xmlns="http://www.w3.org/2000/svg" xmlns:xlink="http://www.w3.org/1999/xlink" width="60" zoomAndPan="magnify" viewBox="0 0 45 44.999999" height="60" preserveAspectRatio="xMidYMid meet" version="1.0"><defs><clipPath id="bb4233c5de"><path d="M 2 0 L 43 0 L 43 45 L 2 45 Z M 2 0 " clip-rule="nonzero"/></clipPath><clipPath id="ee3d087038"><path d="M 38.847656 0.882812 C 38.847656 0.394531 38.453125 0 37.96875 0 L 7.027344 0 C 6.542969 0 6.148438 0.394531 6.148438 0.878906 L 6.148438 4.726562 L 38.847656 4.726562 Z M 9.355469 2.71875 L 8.765625 2.71875 C 8.570312 2.71875 8.410156 2.558594 8.410156 2.363281 C 8.410156 2.167969 8.570312 2.007812 8.765625 2.007812 L 9.355469 2.007812 C 9.554688 2.007812 9.710938 2.167969 9.710938 2.363281 C 9.710938 2.558594 9.554688 2.71875 9.355469 2.71875 Z M 12.230469 2.71875 L 11.636719 2.71875 C 11.441406 2.71875 11.285156 2.558594 11.285156 2.363281 C 11.285156 2.167969 11.441406 2.007812 11.636719 2.007812 L 12.230469 2.007812 C 12.425781 2.007812 12.585938 2.167969 12.585938 2.363281 C 12.585938 2.558594 12.425781 2.71875 12.230469 2.71875 Z M 15.105469 2.71875 L 14.511719 2.71875 C 14.316406 2.71875 14.15625 2.558594 14.15625 2.363281 C 14.15625 2.167969 14.316406 2.007812 14.511719 2.007812 L 15.105469 2.007812 C 15.300781 2.007812 15.457031 2.167969 15.457031 2.363281 C 15.457031 2.558594 15.300781 2.71875 15.105469 2.71875 Z M 36.234375 2.71875 L 20.015625 2.71875 C 19.820312 2.71875 19.660156 2.558594 19.660156 2.363281 C 19.660156 2.167969 19.820312 2.007812 20.015625 2.007812 L 36.234375 2.007812 C 36.429688 2.007812 36.585938 2.167969 36.585938 2.363281 C 36.585938 2.558594 36.429688 2.71875 36.234375 2.71875 Z M 41.351562 9.285156 L 39.558594 9.285156 L 39.558594 9.996094 L 41.351562 9.996094 C 41.640625 9.996094 41.886719 10.238281 41.886719 10.523438 L 41.886719 35.5 L 3.113281 35.5 L 3.113281 10.523438 C 3.113281 10.234375 3.351562 9.996094 3.640625 9.996094 L 5.441406 9.996094 L 5.441406 9.285156 L 3.640625 9.285156 C 2.957031 9.285156 2.40625 9.84375 2.40625 10.523438 L 2.40625 38.960938 C 2.40625 39.644531 2.953125 40.199219 3.640625 40.199219 L 18.121094 40.199219 L 16.28125 44.292969 L 15.257812 44.292969 C 15.0625 44.292969 14.902344 44.449219 14.902344 44.644531 C 14.902344 44.839844 15.0625 45 15.257812 45 L 29.734375 45 C 29.929688 45 30.089844 44.839844 30.089844 44.644531 C 30.089844 44.449219 29.929688 44.292969 29.734375 44.292969 L 28.710938 44.292969 L 26.867188 40.199219 L 41.347656 40.199219 C 42.03125 40.199219 42.589844 39.644531 42.589844 38.960938 C 42.589844 32.960938 42.59375 15.195312 42.59375 10.523438 C 42.59375 9.84375 42.03125 9.285156 41.351562 9.285156 Z M 22.496094 36.726562 C 23.085938 36.726562 23.546875 37.203125 23.546875 37.773438 C 23.546875 38.355469 23.082031 38.820312 22.496094 38.820312 C 21.925781 38.820312 21.449219 38.355469 21.449219 37.773438 C 21.449219 37.210938 21.914062 36.726562 22.496094 36.726562 Z M 17.851562 37.773438 C 17.851562 37.191406 18.34375 36.726562 18.898438 36.726562 C 19.476562 36.726562 19.949219 37.199219 19.949219 37.773438 C 19.949219 38.355469 19.480469 38.820312 18.898438 38.820312 C 18.328125 38.820312 17.851562 38.355469 17.851562 37.773438 Z M 27.933594 44.292969 L 17.0625 44.292969 L 18.894531 40.199219 L 26.09375 40.199219 Z M 26.09375 38.820312 C 25.523438 38.820312 25.046875 38.355469 25.046875 37.773438 C 25.046875 37.195312 25.53125 36.726562 26.09375 36.726562 C 26.65625 36.726562 27.140625 37.179688 27.140625 37.773438 C 27.140625 38.355469 26.675781 38.820312 26.09375 38.820312 Z M 23.683594 10.558594 C 23.574219 9.796875 23.367188 7.6875 24.113281 7.6875 C 25.023438 7.6875 27.316406 10.425781 29.371094 15.386719 C 31.542969 20.628906 31.773438 24.304688 30.984375 24.628906 C 29.925781 25.074219 27.5625 21.03125 27.019531 20.011719 L 27.125 19.972656 C 28.84375 19.257812 29.664062 17.28125 28.949219 15.5625 C 28.238281 13.84375 26.261719 13.023438 24.539062 13.734375 L 24.4375 13.777344 C 24.082031 12.613281 23.824219 11.519531 23.683594 10.558594 Z M 17.664062 23.8125 L 15.132812 17.710938 L 22.859375 8.953125 C 22.792969 11.359375 23.988281 14.957031 24.929688 17.226562 C 25.863281 19.480469 27.5625 22.882812 29.316406 24.539062 Z M 26.851562 19.316406 L 26.691406 19.382812 C 26.308594 18.617188 25.933594 17.804688 25.582031 16.957031 C 25.234375 16.109375 24.921875 15.269531 24.652344 14.457031 L 24.8125 14.390625 C 26.171875 13.828125 27.734375 14.476562 28.296875 15.832031 C 28.859375 17.191406 28.210938 18.753906 26.851562 19.316406 Z M 9.546875 21.234375 C 9.503906 21.132812 9.550781 21.015625 9.652344 20.972656 L 10.378906 20.671875 L 12.203125 25.082031 L 11.480469 25.382812 C 11.375 25.425781 11.261719 25.375 11.21875 25.273438 Z M 6.152344 34.792969 L 38.847656 34.792969 L 38.847656 5.433594 L 6.152344 5.433594 Z M 35.523438 20.402344 C 35.457031 20.574219 35.269531 20.675781 35.066406 20.609375 L 33.308594 19.949219 C 33.128906 19.878906 33.035156 19.675781 33.105469 19.492188 C 33.171875 19.308594 33.378906 19.214844 33.5625 19.285156 L 35.316406 19.945312 C 35.496094 20.011719 35.59375 20.21875 35.523438 20.402344 Z M 35.824219 16.226562 C 36.015625 16.226562 36.171875 16.378906 36.175781 16.570312 C 36.179688 16.765625 36.027344 16.929688 35.828125 16.933594 L 33.957031 16.976562 C 33.957031 16.976562 33.953125 16.976562 33.949219 16.976562 C 33.757812 16.976562 33.597656 16.824219 33.59375 16.628906 C 33.589844 16.433594 33.746094 16.269531 33.941406 16.265625 L 35.816406 16.226562 C 35.820312 16.226562 35.820312 16.226562 35.824219 16.226562 Z M 35.398438 12.890625 C 35.476562 13.070312 35.386719 13.28125 35.207031 13.355469 L 33.476562 14.070312 C 33.269531 14.148438 33.082031 14.046875 33.011719 13.878906 C 32.9375 13.699219 33.023438 13.488281 33.203125 13.414062 L 34.9375 12.699219 C 35.117188 12.625 35.324219 12.710938 35.398438 12.890625 Z M 31.488281 11.023438 L 32.847656 9.726562 C 32.988281 9.589844 33.210938 9.59375 33.347656 9.738281 C 33.480469 9.878906 33.476562 10.101562 33.335938 10.238281 L 31.980469 11.535156 C 31.84375 11.664062 31.625 11.667969 31.480469 11.523438 C 31.34375 11.382812 31.347656 11.15625 31.488281 11.023438 Z M 28.933594 9.375 L 29.707031 7.671875 C 29.789062 7.492188 29.996094 7.414062 30.175781 7.492188 C 30.355469 7.574219 30.433594 7.785156 30.351562 7.960938 L 29.578125 9.667969 C 29.5 9.839844 29.304688 9.929688 29.109375 9.847656 C 28.929688 9.765625 28.851562 9.554688 28.933594 9.375 Z M 9.382812 20.316406 L 10.121094 20.011719 C 9.996094 19.542969 10.25 19.109375 10.648438 18.945312 L 14.511719 17.34375 C 24.125 6.433594 23.425781 7.171875 23.703125 7.058594 C 25.375 6.363281 28.152344 10.585938 30.027344 15.117188 C 31.902344 19.644531 32.929688 24.59375 31.253906 25.285156 C 30.910156 25.429688 32.179688 25.402344 17.480469 24.507812 L 17.324219 24.578125 C 17.367188 24.847656 17.308594 25.066406 17.261719 25.230469 C 17.148438 25.671875 17.253906 25.9375 17.652344 26.171875 C 18.296875 26.542969 18.574219 27.125 18.371094 27.902344 C 18.246094 28.378906 18.386719 28.625 18.761719 28.84375 C 19.441406 29.234375 19.679688 29.839844 19.476562 30.574219 C 19.359375 31.027344 19.484375 31.292969 19.867188 31.511719 C 20.078125 31.636719 20.363281 31.800781 20.546875 32.246094 C 20.617188 32.410156 20.550781 32.621094 20.355469 32.707031 L 17.523438 33.878906 C 17.058594 34.078125 16.457031 33.871094 16.234375 33.347656 L 13.269531 26.183594 C 12.953125 26.183594 12.660156 26.007812 12.492188 25.726562 L 11.753906 26.035156 C 11.261719 26.234375 10.746094 25.988281 10.5625 25.542969 L 8.890625 21.503906 C 8.699219 21.039062 8.921875 20.507812 9.382812 20.316406 Z M 17.296875 26.78125 C 17.691406 27.011719 17.804688 27.277344 17.6875 27.722656 C 17.488281 28.46875 17.734375 29.066406 18.40625 29.453125 C 18.804688 29.6875 18.910156 29.957031 18.792969 30.394531 C 18.480469 31.574219 19.277344 31.941406 19.667969 32.222656 L 17.253906 33.222656 C 17.113281 33.28125 16.949219 33.214844 16.890625 33.074219 L 13.949219 25.972656 C 13.777344 26.042969 16.519531 24.910156 16.625 24.867188 C 16.613281 24.921875 16.597656 24.984375 16.578125 25.050781 C 16.378906 25.8125 16.636719 26.398438 17.296875 26.78125 Z M 10.917969 19.601562 L 14.53125 18.105469 L 16.957031 23.960938 C 16.183594 24.28125 18.886719 23.160156 13.34375 25.457031 C 13.242188 25.496094 13.125 25.449219 13.082031 25.347656 C 10.921875 19.910156 10.5625 19.746094 10.917969 19.601562 Z M 10.917969 19.601562 " clip-rule="nonzero"/></clipPath><linearGradient x1="10.066013" gradientTransform="matrix(0.0878906, 0, 0, -0.0878906, 0.0000005, 44.999999)" y1="17.309015" x2="494.692006" gradientUnits="userSpaceOnUse" y2="501.934985" id="3e09df2cb4"><stop stop-opacity="1" stop-color="rgb(0%, 81.999207%, 100%)" offset="0"/><stop stop-opacity="1" stop-color="rgb(0%, 81.999207%, 100%)" offset="0.0625"/><stop stop-opacity="1" stop-color="rgb(0.131226%, 81.732178%, 99.90387%)" offset="0.0664062"/><stop stop-opacity="1" stop-color="rgb(0.262451%, 81.465149%, 99.809265%)" offset="0.0703125"/><stop stop-opacity="1" stop-color="rgb(0.448608%, 81.083679%, 99.673462%)" offset="0.0742187"/><stop stop-opacity="1" stop-color="rgb(0.636292%, 80.702209%, 99.539185%)" offset="0.078125"/><stop stop-opacity="1" stop-color="rgb(0.822449%, 80.32074%, 99.403381%)" offset="0.0820312"/><stop stop-opacity="1" stop-color="rgb(1.010132%, 79.93927%, 99.269104%)" offset="0.0859375"/><stop stop-opacity="1" stop-color="rgb(1.196289%, 79.5578%, 99.133301%)" offset="0.0898438"/><stop stop-opacity="1" stop-color="rgb(1.383972%, 79.176331%, 98.999023%)" offset="0.09375"/><stop stop-opacity="1" stop-color="rgb(1.571655%, 78.794861%, 98.86322%)" offset="0.0976562"/><stop stop-opacity="1" stop-color="rgb(1.759338%, 78.413391%, 98.728943%)" offset="0.101562"/><stop stop-opacity="1" stop-color="rgb(1.945496%, 78.031921%, 98.59314%)" offset="0.105469"/><stop stop-opacity="1" stop-color="rgb(2.133179%, 77.651978%, 98.458862%)" offset="0.109375"/><stop stop-opacity="1" stop-color="rgb(2.319336%, 77.270508%, 98.323059%)" offset="0.113281"/><stop stop-opacity="1" stop-color="rgb(2.507019%, 76.889038%, 98.188782%)" offset="0.117187"/><stop stop-opacity="1" stop-color="rgb(2.693176%, 76.507568%, 98.052979%)" offset="0.121094"/><stop stop-opacity="1" stop-color="rgb(2.880859%, 76.126099%, 97.918701%)" offset="0.125"/><stop stop-opacity="1" stop-color="rgb(3.068542%, 75.744629%, 97.782898%)" offset="0.128906"/><stop stop-opacity="1" stop-color="rgb(3.256226%, 75.363159%, 97.648621%)" offset="0.132812"/><stop stop-opacity="1" stop-color="rgb(3.442383%, 74.981689%, 97.512817%)" offset="0.136719"/><stop stop-opacity="1" stop-color="rgb(3.630066%, 74.601746%, 97.37854%)" offset="0.140625"/><stop stop-opacity="1" stop-color="rgb(3.816223%, 74.220276%, 97.242737%)" offset="0.144531"/><stop stop-opacity="1" stop-color="rgb(4.003906%, 73.838806%, 97.108459%)" offset="0.148437"/><stop stop-opacity="1" stop-color="rgb(4.190063%, 73.457336%, 96.972656%)" offset="0.152344"/><stop stop-opacity="1" stop-color="rgb(4.377747%, 73.075867%, 96.838379%)" offset="0.15625"/><stop stop-opacity="1" stop-color="rgb(4.56543%, 72.694397%, 96.702576%)" offset="0.160156"/><stop stop-opacity="1" stop-color="rgb(4.753113%, 72.312927%, 96.568298%)" offset="0.164062"/><stop stop-opacity="1" stop-color="rgb(4.93927%, 71.931458%, 96.432495%)" offset="0.167969"/><stop stop-opacity="1" stop-color="rgb(5.126953%, 71.551514%, 96.298218%)" offset="0.171875"/><stop stop-opacity="1" stop-color="rgb(5.31311%, 71.170044%, 96.162415%)" offset="0.175781"/><stop stop-opacity="1" stop-color="rgb(5.500793%, 70.788574%, 96.028137%)" offset="0.179688"/><stop stop-opacity="1" stop-color="rgb(5.686951%, 70.407104%, 95.892334%)" offset="0.183594"/><stop stop-opacity="1" stop-color="rgb(5.874634%, 70.025635%, 95.758057%)" offset="0.1875"/><stop stop-opacity="1" stop-color="rgb(6.062317%, 69.644165%, 95.622253%)" offset="0.191406"/><stop stop-opacity="1" stop-color="rgb(6.25%, 69.262695%, 95.487976%)" offset="0.195312"/><stop stop-opacity="1" stop-color="rgb(6.436157%, 68.881226%, 95.352173%)" offset="0.199219"/><stop stop-opacity="1" stop-color="rgb(6.62384%, 68.499756%, 95.217896%)" offset="0.203125"/><stop stop-opacity="1" stop-color="rgb(6.809998%, 68.118286%, 95.082092%)" offset="0.207031"/><stop stop-opacity="1" stop-color="rgb(6.997681%, 67.738342%, 94.947815%)" offset="0.210938"/><stop stop-opacity="1" stop-color="rgb(7.183838%, 67.356873%, 94.812012%)" offset="0.214844"/><stop stop-opacity="1" stop-color="rgb(7.371521%, 66.975403%, 94.677734%)" offset="0.21875"/><stop stop-opacity="1" stop-color="rgb(7.559204%, 66.593933%, 94.541931%)" offset="0.222656"/><stop stop-opacity="1" stop-color="rgb(7.746887%, 66.212463%, 94.407654%)" offset="0.226562"/><stop stop-opacity="1" stop-color="rgb(7.933044%, 65.830994%, 94.271851%)" offset="0.230469"/><stop stop-opacity="1" stop-color="rgb(8.120728%, 65.449524%, 94.137573%)" offset="0.234375"/><stop stop-opacity="1" stop-color="rgb(8.306885%, 65.068054%, 94.00177%)" offset="0.238281"/><stop stop-opacity="1" stop-color="rgb(8.494568%, 64.68811%, 93.867493%)" offset="0.242187"/><stop stop-opacity="1" stop-color="rgb(8.680725%, 64.306641%, 93.731689%)" offset="0.246094"/><stop stop-opacity="1" stop-color="rgb(8.868408%, 63.925171%, 93.597412%)" offset="0.25"/><stop stop-opacity="1" stop-color="rgb(9.056091%, 63.543701%, 93.461609%)" offset="0.253906"/><stop stop-opacity="1" stop-color="rgb(9.243774%, 63.162231%, 93.327332%)" offset="0.257812"/><stop stop-opacity="1" stop-color="rgb(9.429932%, 62.780762%, 93.191528%)" offset="0.261719"/><stop stop-opacity="1" stop-color="rgb(9.617615%, 62.399292%, 93.057251%)" offset="0.265625"/><stop stop-opacity="1" stop-color="rgb(9.803772%, 62.017822%, 92.921448%)" offset="0.269531"/><stop stop-opacity="1" stop-color="rgb(9.991455%, 61.636353%, 92.78717%)" offset="0.273438"/><stop stop-opacity="1" stop-color="rgb(10.177612%, 61.254883%, 92.651367%)" offset="0.277344"/><stop stop-opacity="1" stop-color="rgb(10.365295%, 60.874939%, 92.51709%)" offset="0.28125"/><stop stop-opacity="1" stop-color="rgb(10.552979%, 60.493469%, 92.381287%)" offset="0.285156"/><stop stop-opacity="1" stop-color="rgb(10.740662%, 60.112%, 92.247009%)" offset="0.289062"/><stop stop-opacity="1" stop-color="rgb(10.926819%, 59.73053%, 92.111206%)" offset="0.292969"/><stop stop-opacity="1" stop-color="rgb(11.114502%, 59.34906%, 91.976929%)" offset="0.296875"/><stop stop-opacity="1" stop-color="rgb(11.300659%, 58.96759%, 91.841125%)" offset="0.300781"/><stop stop-opacity="1" stop-color="rgb(11.488342%, 58.586121%, 91.706848%)" offset="0.304688"/><stop stop-opacity="1" stop-color="rgb(11.6745%, 58.204651%, 91.571045%)" offset="0.308594"/><stop stop-opacity="1" stop-color="rgb(11.862183%, 57.824707%, 91.436768%)" offset="0.3125"/><stop stop-opacity="1" stop-color="rgb(12.049866%, 57.443237%, 91.300964%)" offset="0.316406"/><stop stop-opacity="1" stop-color="rgb(12.237549%, 57.061768%, 91.166687%)" offset="0.320312"/><stop stop-opacity="1" stop-color="rgb(12.423706%, 56.680298%, 91.030884%)" offset="0.324219"/><stop stop-opacity="1" stop-color="rgb(12.611389%, 56.298828%, 90.896606%)" offset="0.328125"/><stop stop-opacity="1" stop-color="rgb(12.797546%, 55.917358%, 90.760803%)" offset="0.332031"/><stop stop-opacity="1" stop-color="rgb(12.985229%, 55.535889%, 90.626526%)" offset="0.335938"/><stop stop-opacity="1" stop-color="rgb(13.172913%, 55.154419%, 90.490723%)" offset="0.339844"/><stop stop-opacity="1" stop-color="rgb(13.360596%, 54.774475%, 90.356445%)" offset="0.34375"/><stop stop-opacity="1" stop-color="rgb(13.546753%, 54.393005%, 90.220642%)" offset="0.347656"/><stop stop-opacity="1" stop-color="rgb(13.734436%, 54.011536%, 90.086365%)" offset="0.351562"/><stop stop-opacity="1" stop-color="rgb(13.920593%, 53.630066%, 89.950562%)" offset="0.355469"/><stop stop-opacity="1" stop-color="rgb(14.108276%, 53.248596%, 89.816284%)" offset="0.359375"/><stop stop-opacity="1" stop-color="rgb(14.294434%, 52.867126%, 89.680481%)" offset="0.363281"/><stop stop-opacity="1" stop-color="rgb(14.482117%, 52.485657%, 89.546204%)" offset="0.367187"/><stop stop-opacity="1" stop-color="rgb(14.6698%, 52.104187%, 89.4104%)" offset="0.371094"/><stop stop-opacity="1" stop-color="rgb(14.857483%, 51.722717%, 89.276123%)" offset="0.375"/><stop stop-opacity="1" stop-color="rgb(15.04364%, 51.341248%, 89.14032%)" offset="0.378906"/><stop stop-opacity="1" stop-color="rgb(15.231323%, 50.961304%, 89.006042%)" offset="0.382812"/><stop stop-opacity="1" stop-color="rgb(15.41748%, 50.579834%, 88.870239%)" offset="0.386719"/><stop stop-opacity="1" stop-color="rgb(15.605164%, 50.198364%, 88.735962%)" offset="0.390625"/><stop stop-opacity="1" stop-color="rgb(15.791321%, 49.816895%, 88.600159%)" offset="0.394531"/><stop stop-opacity="1" stop-color="rgb(15.979004%, 49.435425%, 88.465881%)" offset="0.398437"/><stop stop-opacity="1" stop-color="rgb(16.166687%, 49.053955%, 88.330078%)" offset="0.402344"/><stop stop-opacity="1" stop-color="rgb(16.35437%, 48.672485%, 88.195801%)" offset="0.40625"/><stop stop-opacity="1" stop-color="rgb(16.540527%, 48.291016%, 88.059998%)" offset="0.410156"/><stop stop-opacity="1" stop-color="rgb(16.72821%, 47.911072%, 87.92572%)" offset="0.414062"/><stop stop-opacity="1" stop-color="rgb(16.914368%, 47.529602%, 87.789917%)" offset="0.417969"/><stop stop-opacity="1" stop-color="rgb(17.102051%, 47.148132%, 87.65564%)" offset="0.421875"/><stop stop-opacity="1" stop-color="rgb(17.288208%, 46.766663%, 87.519836%)" offset="0.425781"/><stop stop-opacity="1" stop-color="rgb(17.475891%, 46.385193%, 87.385559%)" offset="0.429688"/><stop stop-opacity="1" stop-color="rgb(17.663574%, 46.003723%, 87.249756%)" offset="0.433594"/><stop stop-opacity="1" stop-color="rgb(17.851257%, 45.622253%, 87.115479%)" offset="0.4375"/><stop stop-opacity="1" stop-color="rgb(18.037415%, 45.240784%, 86.979675%)" offset="0.441406"/><stop stop-opacity="1" stop-color="rgb(18.225098%, 44.86084%, 86.845398%)" offset="0.445312"/><stop stop-opacity="1" stop-color="rgb(18.411255%, 44.47937%, 86.709595%)" offset="0.449219"/><stop stop-opacity="1" stop-color="rgb(18.598938%, 44.0979%, 86.575317%)" offset="0.453125"/><stop stop-opacity="1" stop-color="rgb(18.785095%, 43.716431%, 86.439514%)" offset="0.457031"/><stop stop-opacity="1" stop-color="rgb(18.972778%, 43.334961%, 86.305237%)" offset="0.460938"/><stop stop-opacity="1" stop-color="rgb(19.160461%, 42.953491%, 86.169434%)" offset="0.464844"/><stop stop-opacity="1" stop-color="rgb(19.348145%, 42.572021%, 86.035156%)" offset="0.46875"/><stop stop-opacity="1" stop-color="rgb(19.534302%, 42.190552%, 85.899353%)" offset="0.472656"/><stop stop-opacity="1" stop-color="rgb(19.721985%, 41.809082%, 85.765076%)" offset="0.476563"/><stop stop-opacity="1" stop-color="rgb(19.908142%, 41.427612%, 85.629272%)" offset="0.480469"/><stop stop-opacity="1" stop-color="rgb(20.095825%, 41.047668%, 85.494995%)" offset="0.484375"/><stop stop-opacity="1" stop-color="rgb(20.281982%, 40.666199%, 85.359192%)" offset="0.488281"/><stop stop-opacity="1" stop-color="rgb(20.469666%, 40.284729%, 85.224915%)" offset="0.492187"/><stop stop-opacity="1" stop-color="rgb(20.657349%, 39.903259%, 85.089111%)" offset="0.496094"/><stop stop-opacity="1" stop-color="rgb(20.845032%, 39.52179%, 84.954834%)" offset="0.5"/><stop stop-opacity="1" stop-color="rgb(21.034241%, 39.176941%, 84.83429%)" offset="0.503906"/><stop stop-opacity="1" stop-color="rgb(21.22345%, 38.832092%, 84.713745%)" offset="0.507812"/><stop stop-opacity="1" stop-color="rgb(21.447754%, 39.146423%, 84.848022%)" offset="0.511719"/><stop stop-opacity="1" stop-color="rgb(21.673584%, 39.46228%, 84.983826%)" offset="0.515625"/><stop stop-opacity="1" stop-color="rgb(21.897888%, 39.776611%, 85.118103%)" offset="0.519531"/><stop stop-opacity="1" stop-color="rgb(22.123718%, 40.092468%, 85.253906%)" offset="0.523438"/><stop stop-opacity="1" stop-color="rgb(22.348022%, 40.406799%, 85.388184%)" offset="0.527344"/><stop stop-opacity="1" stop-color="rgb(22.573853%, 40.722656%, 85.523987%)" offset="0.53125"/><stop stop-opacity="1" stop-color="rgb(22.798157%, 41.036987%, 85.658264%)" offset="0.535156"/><stop stop-opacity="1" stop-color="rgb(23.023987%, 41.352844%, 85.794067%)" offset="0.539062"/><stop stop-opacity="1" stop-color="rgb(23.248291%, 41.667175%, 85.928345%)" offset="0.542969"/><stop stop-opacity="1" stop-color="rgb(23.474121%, 41.983032%, 86.064148%)" offset="0.546875"/><stop stop-opacity="1" stop-color="rgb(23.698425%, 42.297363%, 86.198425%)" offset="0.550781"/><stop stop-opacity="1" stop-color="rgb(23.924255%, 42.61322%, 86.334229%)" offset="0.554688"/><stop stop-opacity="1" stop-color="rgb(24.14856%, 42.927551%, 86.468506%)" offset="0.558594"/><stop stop-opacity="1" stop-color="rgb(24.37439%, 43.243408%, 86.604309%)" offset="0.5625"/><stop stop-opacity="1" stop-color="rgb(24.598694%, 43.557739%, 86.738586%)" offset="0.566406"/><stop stop-opacity="1" stop-color="rgb(24.824524%, 43.873596%, 86.87439%)" offset="0.570312"/><stop stop-opacity="1" stop-color="rgb(25.048828%, 44.187927%, 87.008667%)" offset="0.574219"/><stop stop-opacity="1" stop-color="rgb(25.274658%, 44.503784%, 87.14447%)" offset="0.578125"/><stop stop-opacity="1" stop-color="rgb(25.498962%, 44.818115%, 87.278748%)" offset="0.582031"/><stop stop-opacity="1" stop-color="rgb(25.724792%, 45.133972%, 87.414551%)" offset="0.585938"/><stop stop-opacity="1" stop-color="rgb(25.949097%, 45.448303%, 87.548828%)" offset="0.589844"/><stop stop-opacity="1" stop-color="rgb(26.174927%, 45.76416%, 87.684631%)" offset="0.59375"/><stop stop-opacity="1" stop-color="rgb(26.399231%, 46.078491%, 87.818909%)" offset="0.597656"/><stop stop-opacity="1" stop-color="rgb(26.625061%, 46.394348%, 87.954712%)" offset="0.601562"/><stop stop-opacity="1" stop-color="rgb(26.849365%, 46.708679%, 88.088989%)" offset="0.605469"/><stop stop-opacity="1" stop-color="rgb(27.075195%, 47.024536%, 88.224792%)" offset="0.609375"/><stop stop-opacity="1" stop-color="rgb(27.2995%, 47.338867%, 88.35907%)" offset="0.613281"/><stop stop-opacity="1" stop-color="rgb(27.52533%, 47.654724%, 88.494873%)" offset="0.617188"/><stop stop-opacity="1" stop-color="rgb(27.749634%, 47.969055%, 88.62915%)" offset="0.621094"/><stop stop-opacity="1" stop-color="rgb(27.975464%, 48.284912%, 88.764954%)" offset="0.625"/><stop stop-opacity="1" stop-color="rgb(28.199768%, 48.599243%, 88.899231%)" offset="0.628906"/><stop stop-opacity="1" stop-color="rgb(28.425598%, 48.9151%, 89.035034%)" offset="0.632812"/><stop stop-opacity="1" stop-color="rgb(28.649902%, 49.229431%, 89.169312%)" offset="0.636719"/><stop stop-opacity="1" stop-color="rgb(28.875732%, 49.545288%, 89.305115%)" offset="0.640625"/><stop stop-opacity="1" stop-color="rgb(29.100037%, 49.859619%, 89.439392%)" offset="0.644531"/><stop stop-opacity="1" stop-color="rgb(29.325867%, 50.175476%, 89.575195%)" offset="0.648438"/><stop stop-opacity="1" stop-color="rgb(29.550171%, 50.489807%, 89.709473%)" offset="0.652344"/><stop stop-opacity="1" stop-color="rgb(29.776001%, 50.805664%, 89.845276%)" offset="0.65625"/><stop stop-opacity="1" stop-color="rgb(30.000305%, 51.119995%, 89.979553%)" offset="0.660156"/><stop stop-opacity="1" stop-color="rgb(30.226135%, 51.435852%, 90.115356%)" offset="0.664063"/><stop stop-opacity="1" stop-color="rgb(30.450439%, 51.750183%, 90.249634%)" offset="0.667969"/><stop stop-opacity="1" stop-color="rgb(30.67627%, 52.06604%, 90.385437%)" offset="0.671875"/><stop stop-opacity="1" stop-color="rgb(30.900574%, 52.380371%, 90.519714%)" offset="0.675781"/><stop stop-opacity="1" stop-color="rgb(31.126404%, 52.696228%, 90.655518%)" offset="0.679688"/><stop stop-opacity="1" stop-color="rgb(31.350708%, 53.010559%, 90.789795%)" offset="0.683594"/><stop stop-opacity="1" stop-color="rgb(31.576538%, 53.326416%, 90.925598%)" offset="0.6875"/><stop stop-opacity="1" stop-color="rgb(31.800842%, 53.640747%, 91.059875%)" offset="0.691406"/><stop stop-opacity="1" stop-color="rgb(32.026672%, 53.956604%, 91.195679%)" offset="0.695312"/><stop stop-opacity="1" stop-color="rgb(32.250977%, 54.270935%, 91.329956%)" offset="0.699219"/><stop stop-opacity="1" stop-color="rgb(32.476807%, 54.586792%, 91.465759%)" offset="0.703125"/><stop stop-opacity="1" stop-color="rgb(32.701111%, 54.901123%, 91.600037%)" offset="0.707031"/><stop stop-opacity="1" stop-color="rgb(32.926941%, 55.21698%, 91.73584%)" offset="0.710938"/><stop stop-opacity="1" stop-color="rgb(33.151245%, 55.531311%, 91.870117%)" offset="0.714844"/><stop stop-opacity="1" stop-color="rgb(33.377075%, 55.847168%, 92.00592%)" offset="0.71875"/><stop stop-opacity="1" stop-color="rgb(33.601379%, 56.161499%, 92.140198%)" offset="0.722656"/><stop stop-opacity="1" stop-color="rgb(33.827209%, 56.477356%, 92.276001%)" offset="0.726562"/><stop stop-opacity="1" stop-color="rgb(34.051514%, 56.791687%, 92.410278%)" offset="0.730469"/><stop stop-opacity="1" stop-color="rgb(34.277344%, 57.107544%, 92.546082%)" offset="0.734375"/><stop stop-opacity="1" stop-color="rgb(34.501648%, 57.421875%, 92.680359%)" offset="0.738281"/><stop stop-opacity="1" stop-color="rgb(34.727478%, 57.737732%, 92.816162%)" offset="0.742188"/><stop stop-opacity="1" stop-color="rgb(34.951782%, 58.052063%, 92.950439%)" offset="0.746094"/><stop stop-opacity="1" stop-color="rgb(35.177612%, 58.36792%, 93.086243%)" offset="0.75"/><stop stop-opacity="1" stop-color="rgb(35.401917%, 58.682251%, 93.22052%)" offset="0.753906"/><stop stop-opacity="1" stop-color="rgb(35.627747%, 58.998108%, 93.356323%)" offset="0.757813"/><stop stop-opacity="1" stop-color="rgb(35.852051%, 59.312439%, 93.490601%)" offset="0.761719"/><stop stop-opacity="1" stop-color="rgb(36.077881%, 59.628296%, 93.626404%)" offset="0.765625"/><stop stop-opacity="1" stop-color="rgb(36.302185%, 59.942627%, 93.760681%)" offset="0.769531"/><stop stop-opacity="1" stop-color="rgb(36.528015%, 60.258484%, 93.896484%)" offset="0.773438"/><stop stop-opacity="1" stop-color="rgb(36.752319%, 60.572815%, 94.030762%)" offset="0.777344"/><stop stop-opacity="1" stop-color="rgb(36.978149%, 60.888672%, 94.166565%)" offset="0.78125"/><stop stop-opacity="1" stop-color="rgb(37.202454%, 61.203003%, 94.300842%)" offset="0.785156"/><stop stop-opacity="1" stop-color="rgb(37.428284%, 61.51886%, 94.436646%)" offset="0.789062"/><stop stop-opacity="1" stop-color="rgb(37.652588%, 61.833191%, 94.570923%)" offset="0.792969"/><stop stop-opacity="1" stop-color="rgb(37.878418%, 62.149048%, 94.706726%)" offset="0.796875"/><stop stop-opacity="1" stop-color="rgb(38.102722%, 62.463379%, 94.841003%)" offset="0.800781"/><stop stop-opacity="1" stop-color="rgb(38.328552%, 62.779236%, 94.976807%)" offset="0.804688"/><stop stop-opacity="1" stop-color="rgb(38.552856%, 63.093567%, 95.111084%)" offset="0.808594"/><stop stop-opacity="1" stop-color="rgb(38.778687%, 63.409424%, 95.246887%)" offset="0.8125"/><stop stop-opacity="1" stop-color="rgb(39.002991%, 63.723755%, 95.381165%)" offset="0.816406"/><stop stop-opacity="1" stop-color="rgb(39.228821%, 64.039612%, 95.516968%)" offset="0.820312"/><stop stop-opacity="1" stop-color="rgb(39.453125%, 64.353943%, 95.651245%)" offset="0.824219"/><stop stop-opacity="1" stop-color="rgb(39.678955%, 64.6698%, 95.787048%)" offset="0.828125"/><stop stop-opacity="1" stop-color="rgb(39.903259%, 64.984131%, 95.921326%)" offset="0.832031"/><stop stop-opacity="1" stop-color="rgb(40.129089%, 65.299988%, 96.057129%)" offset="0.835938"/><stop stop-opacity="1" stop-color="rgb(40.353394%, 65.614319%, 96.191406%)" offset="0.839844"/><stop stop-opacity="1" stop-color="rgb(40.579224%, 65.930176%, 96.327209%)" offset="0.84375"/><stop stop-opacity="1" stop-color="rgb(40.803528%, 66.244507%, 96.461487%)" offset="0.847656"/><stop stop-opacity="1" stop-color="rgb(41.029358%, 66.560364%, 96.59729%)" offset="0.851563"/><stop stop-opacity="1" stop-color="rgb(41.253662%, 66.874695%, 96.731567%)" offset="0.855469"/><stop stop-opacity="1" stop-color="rgb(41.479492%, 67.190552%, 96.867371%)" offset="0.859375"/><stop stop-opacity="1" stop-color="rgb(41.703796%, 67.504883%, 97.001648%)" offset="0.863281"/><stop stop-opacity="1" stop-color="rgb(41.929626%, 67.82074%, 97.137451%)" offset="0.867188"/><stop stop-opacity="1" stop-color="rgb(42.153931%, 68.135071%, 97.271729%)" offset="0.871094"/><stop stop-opacity="1" stop-color="rgb(42.379761%, 68.450928%, 97.407532%)" offset="0.875"/><stop stop-opacity="1" stop-color="rgb(42.604065%, 68.765259%, 97.541809%)" offset="0.878906"/><stop stop-opacity="1" stop-color="rgb(42.829895%, 69.081116%, 97.677612%)" offset="0.882812"/><stop stop-opacity="1" stop-color="rgb(43.054199%, 69.395447%, 97.81189%)" offset="0.886719"/><stop stop-opacity="1" stop-color="rgb(43.280029%, 69.711304%, 97.947693%)" offset="0.890625"/><stop stop-opacity="1" stop-color="rgb(43.504333%, 70.025635%, 98.08197%)" offset="0.894531"/><stop stop-opacity="1" stop-color="rgb(43.730164%, 70.341492%, 98.217773%)" offset="0.898438"/><stop stop-opacity="1" stop-color="rgb(43.954468%, 70.655823%, 98.352051%)" offset="0.902344"/><stop stop-opacity="1" stop-color="rgb(44.180298%, 70.97168%, 98.487854%)" offset="0.90625"/><stop stop-opacity="1" stop-color="rgb(44.404602%, 71.286011%, 98.622131%)" offset="0.910156"/><stop stop-opacity="1" stop-color="rgb(44.630432%, 71.601868%, 98.757935%)" offset="0.914062"/><stop stop-opacity="1" stop-color="rgb(44.854736%, 71.916199%, 98.892212%)" offset="0.917969"/><stop stop-opacity="1" stop-color="rgb(45.080566%, 72.232056%, 99.028015%)" offset="0.921875"/><stop stop-opacity="1" stop-color="rgb(45.304871%, 72.546387%, 99.162292%)" offset="0.925781"/><stop stop-opacity="1" stop-color="rgb(45.530701%, 72.862244%, 99.298096%)" offset="0.929688"/><stop stop-opacity="1" stop-color="rgb(45.755005%, 73.176575%, 99.432373%)" offset="0.933594"/><stop stop-opacity="1" stop-color="rgb(45.980835%, 73.492432%, 99.568176%)" offset="0.9375"/><stop stop-opacity="1" stop-color="rgb(46.205139%, 73.806763%, 99.702454%)" offset="0.941406"/><stop stop-opacity="1" stop-color="rgb(46.430969%, 74.12262%, 99.838257%)" offset="0.945312"/><stop stop-opacity="1" stop-color="rgb(46.565247%, 74.310303%, 99.919128%)" offset="0.953125"/><stop stop-opacity="1" stop-color="rgb(46.699524%, 74.499512%, 100%)" offset="0.96875"/><stop stop-opacity="1" stop-color="rgb(46.699524%, 74.499512%, 100%)" offset="1"/></linearGradient></defs><g clip-path="url(#bb4233c5de)"><g clip-path="url(#ee3d087038)"><path fill="url(#3e09df2cb4)" d="M 2.40625 45 L 2.40625 0 L 42.59375 0 L 42.59375 45 Z M 2.40625 45 " fill-rule="nonzero"/></g></g></svg>