<svg xmlns="http://www.w3.org/2000/svg" xmlns:xlink="http://www.w3.org/1999/xlink" viewBox="0 0 512 512" id="secure-file">
  <defs>
    <linearGradient id="a" x1="205.891" x2="205.891" y1="22" y2="506.413" gradientUnits="userSpaceOnUse">
      <stop offset="0" stop-color="#00efd1"></stop>
      <stop offset="1" stop-color="#00acea"></stop>
    </linearGradient>
    <linearGradient xlink:href="#a" id="b" x1="161.847" x2="161.847" y1="22" y2="506.413"></linearGradient>
    <linearGradient xlink:href="#a" id="c" x1="336" x2="336" y1="22" y2="506.413"></linearGradient>
    <linearGradient xlink:href="#a" id="d" x1="335.66" x2="335.66" y1="22" y2="506.413"></linearGradient>
    <linearGradient xlink:href="#a" id="e" x1="255.925" x2="255.925" y1="22" y2="506.413"></linearGradient>
  </defs>
  <g>
    <path fill="url(#a)" d="M307.557,345H104.226a7,7,0,0,0,0,14H307.557a7,7,0,0,0,0-14Z"></path>
    <path fill="url(#b)" d="M104.226,301H219.468a7,7,0,0,0,0-14H104.226a7,7,0,0,0,0,14Z"></path>
    <path fill="url(#c)" d="M297.22,235h78.012A26.936,26.936,0,0,0,402,207.88V150.13a27.437,27.437,0,0,0-20-26.22V109.447a45.5,45.5,0,1,0-91,0V123.91a27.2,27.2,0,0,0-21,26.22v57.75A27.322,27.322,0,0,0,297.22,235ZM336.5,77.585A31.742,31.742,0,0,1,368,109.447V123H305V109.447A31.742,31.742,0,0,1,336.5,77.585ZM388,208a13,13,0,0,1-13,13H297a13,13,0,0,1-13-13V150a13,13,0,0,1,13-13h78a13,13,0,0,1,13,13Z"></path>
    <path fill="url(#d)" d="M328,194.018V203a7,7,0,0,0,14,0v-8.346a16.336,16.336,0,1,0-14-.636Zm7.66-16.735a2.317,2.317,0,0,1,1.525,4.069,6.774,6.774,0,0,0-3.3-.255,2.3,2.3,0,0,1-.553-1.488A2.329,2.329,0,0,1,335.66,177.283Z"></path>
    <path fill="url(#e)" d="M427.674,378A23.329,23.329,0,0,0,435,389.58V389.5a25.719,25.719,0,0,0,18.5,7.724,26.081,26.081,0,0,0,18.627-7.788,26.5,26.5,0,1,0-37.608-37.348A24.033,24.033,0,0,0,427.674,364H368V335h28.346A6.394,6.394,0,0,0,403,328.383V300h20.306a27.827,27.827,0,0,0,6.812,11.666,26.6,26.6,0,1,0,0-37.5A28.363,28.363,0,0,0,423.306,286h-26.96c-3.867,0-7.346,2.966-7.346,6.832V321H368V279.614c58-14.887,101.26-67.68,101.26-130.343,0-74.185-60.3-134.637-134.482-134.637-47.689,0-89.6,25.366-113.5,62.366H39.23A7.372,7.372,0,0,0,32,84.2v312.87a7.114,7.114,0,0,0,2.085,4.868L124.336,495a7.01,7.01,0,0,0,5.088,2h231.8A6.59,6.59,0,0,0,368,490.267V418h21v30.492c0,3.866,3.479,6.508,7.346,6.508h26.96a23.838,23.838,0,0,0,6.812,12,26.44,26.44,0,1,0,18.75-45.035,26.119,26.119,0,0,0-18.75,7.529A27.32,27.32,0,0,0,423.306,441H403V410.736A6.491,6.491,0,0,0,396.346,404H368V378Zm16.73-16.188a12.516,12.516,0,1,1,0,17.7h0a12.513,12.513,0,0,1,0-17.7Zm-4.385-77.83a12.516,12.516,0,1,1,0,17.7A12.43,12.43,0,0,1,440.019,283.982Zm0,155.66a12.515,12.515,0,1,1,0,17.7A12.426,12.426,0,0,1,440.019,439.642ZM334.833,28.733A120.539,120.539,0,1,1,214.3,149.271,120.674,120.674,0,0,1,334.833,28.733ZM122,472.968,55.746,404H122ZM136,483V397.069c0-3.866-2.71-7.069-6.576-7.069H46V91H213.487A135.527,135.527,0,0,0,200.3,149.172c0,74.185,60.243,134.588,134.427,134.588A130.261,130.261,0,0,0,354,282.407V483Z"></path>
  </g>
</svg>
