<svg xmlns="http://www.w3.org/2000/svg" xmlns:xlink="http://www.w3.org/1999/xlink" width="60" zoomAndPan="magnify" viewBox="0 0 45 44.999999" height="60" preserveAspectRatio="xMidYMid meet" version="1.0"><defs><clipPath id="7e21861cd7"><path d="M 1 2 L 44 2 L 44 43 L 1 43 Z M 1 2 " clip-rule="nonzero"/></clipPath><clipPath id="33bb8ea5ae"><path d="M 43.269531 34.453125 L 42.097656 34.453125 L 42.097656 12.660156 C 42.097656 10.308594 40.175781 8.347656 37.820312 8.347656 L 31.289062 8.347656 L 31.289062 8.335938 C 31.28125 8.140625 31.207031 7.976562 31.066406 7.839844 C 30.921875 7.707031 30.753906 7.640625 30.558594 7.644531 L 23.113281 7.644531 L 23.113281 7.015625 C 23.277344 6.96875 23.429688 6.902344 23.574219 6.816406 C 23.71875 6.734375 23.851562 6.632812 23.972656 6.519531 C 24.09375 6.402344 24.203125 6.273438 24.292969 6.136719 C 24.386719 5.996094 24.460938 5.84375 24.515625 5.6875 C 24.574219 5.53125 24.609375 5.367188 24.628906 5.199219 C 24.648438 5.035156 24.644531 4.867188 24.625 4.699219 C 24.605469 4.535156 24.566406 4.371094 24.507812 4.214844 C 24.449219 4.058594 24.371094 3.910156 24.277344 3.769531 C 24.183594 3.632812 24.074219 3.503906 23.953125 3.390625 C 23.828125 3.277344 23.695312 3.179688 23.546875 3.097656 C 23.402344 3.015625 23.25 2.953125 23.085938 2.90625 C 22.925781 2.859375 22.761719 2.832031 22.59375 2.824219 C 22.425781 2.820312 22.261719 2.832031 22.097656 2.863281 C 21.929688 2.894531 21.773438 2.945312 21.621094 3.011719 C 21.464844 3.082031 21.324219 3.167969 21.191406 3.269531 C 21.058594 3.375 20.941406 3.488281 20.835938 3.621094 C 20.730469 3.75 20.640625 3.890625 20.566406 4.042969 C 20.496094 4.195312 20.441406 4.351562 20.40625 4.515625 C 20.371094 4.679688 20.355469 4.847656 20.359375 5.015625 C 20.363281 5.179688 20.386719 5.347656 20.429688 5.507812 C 20.472656 5.671875 20.53125 5.824219 20.613281 5.972656 C 20.691406 6.121094 20.785156 6.257812 20.898438 6.382812 C 21.007812 6.507812 21.132812 6.621094 21.269531 6.71875 C 21.40625 6.8125 21.554688 6.894531 21.707031 6.953125 L 21.707031 7.644531 L 14.441406 7.644531 C 14.246094 7.640625 14.078125 7.707031 13.933594 7.839844 C 13.792969 7.976562 13.71875 8.140625 13.710938 8.335938 L 13.710938 8.347656 L 7.179688 8.347656 C 4.824219 8.347656 2.902344 10.308594 2.902344 12.660156 L 2.902344 34.453125 L 1.730469 34.453125 C 1.539062 34.457031 1.375 34.527344 1.242188 34.667969 C 1.109375 34.804688 1.046875 34.972656 1.054688 35.164062 L 1.054688 37.90625 C 1.054688 40.257812 2.941406 42.1875 5.296875 42.1875 L 39.703125 42.1875 C 42.058594 42.1875 43.945312 40.257812 43.945312 37.90625 L 43.945312 35.164062 C 43.953125 34.972656 43.890625 34.804688 43.757812 34.667969 C 43.625 34.527344 43.460938 34.457031 43.269531 34.453125 Z M 22.5 4.230469 C 22.703125 4.230469 22.875 4.304688 23.019531 4.445312 C 23.164062 4.589844 23.234375 4.761719 23.234375 4.964844 C 23.234375 5.167969 23.164062 5.34375 23.019531 5.484375 C 22.875 5.628906 22.703125 5.699219 22.5 5.699219 C 22.296875 5.699219 22.125 5.628906 21.980469 5.484375 C 21.835938 5.34375 21.765625 5.167969 21.765625 4.964844 C 21.765625 4.761719 21.835938 4.589844 21.980469 4.445312 C 22.125 4.304688 22.296875 4.230469 22.5 4.230469 Z M 33.085938 13.617188 C 33.085938 13.59375 33.074219 13.621094 33.074219 13.535156 L 37.175781 13.535156 L 37.175781 31.199219 L 7.824219 31.199219 L 7.824219 13.535156 L 11.925781 13.535156 C 11.925781 13.621094 11.910156 13.59375 11.910156 13.617188 C 11.910156 13.886719 11.949219 14.152344 12.035156 14.410156 C 12.121094 14.664062 12.242188 14.902344 12.40625 15.121094 C 12.570312 15.335938 12.761719 15.519531 12.984375 15.675781 C 13.207031 15.828125 13.449219 15.941406 13.710938 16.015625 L 13.710938 19.660156 C 13.714844 19.859375 13.789062 20.03125 13.929688 20.171875 C 14.070312 20.3125 14.242188 20.386719 14.441406 20.390625 L 18.105469 20.390625 L 18.105469 21.355469 L 16.992188 21.355469 C 14.109375 21.355469 11.777344 23.738281 11.777344 26.621094 L 11.777344 29.304688 C 11.777344 29.496094 11.84375 29.65625 11.980469 29.785156 C 12.117188 29.917969 12.28125 29.980469 12.46875 29.96875 L 32.53125 29.96875 C 32.71875 29.980469 32.882812 29.917969 33.019531 29.785156 C 33.15625 29.65625 33.222656 29.496094 33.222656 29.304688 L 33.222656 26.621094 C 33.222656 23.738281 30.890625 21.355469 28.007812 21.355469 L 26.894531 21.355469 L 26.894531 20.390625 L 30.558594 20.390625 C 30.757812 20.386719 30.929688 20.3125 31.070312 20.171875 C 31.210938 20.03125 31.285156 19.859375 31.289062 19.660156 L 31.289062 16.015625 C 31.550781 15.941406 31.792969 15.828125 32.015625 15.675781 C 32.238281 15.519531 32.429688 15.335938 32.59375 15.121094 C 32.757812 14.902344 32.878906 14.664062 32.964844 14.40625 C 33.050781 14.152344 33.089844 13.886719 33.085938 13.617188 Z M 13.710938 14.46875 C 13.582031 14.367188 13.484375 14.242188 13.414062 14.097656 C 13.339844 13.949219 13.304688 13.796875 13.304688 13.632812 C 13.304688 13.46875 13.339844 13.316406 13.414062 13.167969 C 13.484375 13.023438 13.582031 12.898438 13.710938 12.796875 Z M 18.105469 28.5625 L 18.105469 26.453125 L 26.894531 26.453125 L 26.894531 28.5625 Z M 27.585938 25.046875 L 17.414062 25.046875 C 17.21875 25.042969 17.054688 25.109375 16.914062 25.242188 C 16.773438 25.375 16.703125 25.539062 16.699219 25.730469 L 16.699219 28.5625 L 13.183594 28.5625 L 13.183594 26.621094 C 13.183594 24.515625 14.886719 22.761719 16.992188 22.761719 L 28.007812 22.761719 C 30.113281 22.761719 31.816406 24.515625 31.816406 26.621094 L 31.816406 28.5625 L 28.300781 28.5625 L 28.300781 25.730469 C 28.296875 25.539062 28.226562 25.375 28.085938 25.242188 C 27.945312 25.109375 27.78125 25.042969 27.585938 25.046875 Z M 19.511719 21.355469 L 19.511719 20.390625 L 25.488281 20.390625 L 25.488281 21.355469 Z M 31.289062 14.46875 L 31.289062 12.796875 C 31.417969 12.898438 31.515625 13.023438 31.585938 13.167969 C 31.660156 13.316406 31.695312 13.46875 31.695312 13.632812 C 31.695312 13.796875 31.660156 13.949219 31.585938 14.097656 C 31.515625 14.242188 31.417969 14.367188 31.289062 14.46875 Z M 15.117188 9.050781 L 29.882812 9.050781 L 29.882812 18.984375 L 15.117188 18.984375 Z M 4.308594 12.660156 C 4.308594 11.082031 5.601562 9.753906 7.179688 9.753906 L 13.710938 9.753906 L 13.710938 11.25 C 13.175781 11.394531 12.742188 11.683594 12.410156 12.128906 L 7.132812 12.128906 C 6.933594 12.136719 6.765625 12.210938 6.625 12.355469 C 6.488281 12.496094 6.417969 12.667969 6.417969 12.867188 L 6.417969 31.878906 C 6.417969 32.078125 6.488281 32.246094 6.628906 32.386719 C 6.765625 32.53125 6.933594 32.601562 7.132812 32.605469 L 37.867188 32.605469 C 38.066406 32.601562 38.234375 32.53125 38.371094 32.386719 C 38.511719 32.246094 38.582031 32.078125 38.582031 31.878906 L 38.582031 12.867188 C 38.582031 12.667969 38.511719 12.496094 38.375 12.355469 C 38.234375 12.210938 38.066406 12.136719 37.867188 12.128906 L 32.589844 12.128906 C 32.257812 11.683594 31.824219 11.394531 31.289062 11.25 L 31.289062 9.753906 L 37.820312 9.753906 C 39.398438 9.753906 40.691406 11.082031 40.691406 12.660156 L 40.691406 34.453125 L 27.730469 34.453125 C 27.523438 34.453125 27.351562 34.53125 27.214844 34.683594 L 26.492188 35.464844 C 25.921875 36.078125 25.222656 36.386719 24.386719 36.386719 L 20.613281 36.386719 C 19.78125 36.386719 19.078125 36.082031 18.511719 35.46875 L 17.785156 34.679688 C 17.648438 34.53125 17.476562 34.453125 17.269531 34.453125 L 4.308594 34.453125 Z M 42.539062 37.90625 C 42.542969 38.285156 42.472656 38.648438 42.328125 39 C 42.1875 39.351562 41.984375 39.660156 41.71875 39.929688 C 41.453125 40.199219 41.144531 40.410156 40.796875 40.554688 C 40.445312 40.703125 40.082031 40.777344 39.703125 40.78125 L 5.296875 40.78125 C 4.917969 40.777344 4.554688 40.703125 4.203125 40.554688 C 3.855469 40.410156 3.546875 40.199219 3.28125 39.929688 C 3.015625 39.660156 2.8125 39.351562 2.671875 39 C 2.527344 38.648438 2.457031 38.285156 2.460938 37.90625 L 2.460938 35.859375 L 16.960938 35.859375 L 17.476562 36.417969 C 17.878906 36.855469 18.355469 37.195312 18.902344 37.433594 C 19.449219 37.671875 20.019531 37.792969 20.613281 37.792969 L 24.386719 37.792969 C 24.980469 37.792969 25.550781 37.671875 26.097656 37.433594 C 26.644531 37.195312 27.121094 36.855469 27.523438 36.417969 L 28.039062 35.859375 L 42.539062 35.859375 Z M 42.539062 37.90625 " clip-rule="nonzero"/></clipPath><linearGradient x1="256" gradientTransform="matrix(0.0878906, 0, 0, 0.0878906, 0.0000005, 0)" y1="32.07051" x2="256" gradientUnits="userSpaceOnUse" y2="479.999983" id="20679a0109"><stop stop-opacity="1" stop-color="rgb(20.547485%, 40.127563%, 85.169983%)" offset="0"/><stop stop-opacity="1" stop-color="rgb(20.466614%, 40.289307%, 85.22644%)" offset="0.0078125"/><stop stop-opacity="1" stop-color="rgb(20.307922%, 40.614319%, 85.342407%)" offset="0.015625"/><stop stop-opacity="1" stop-color="rgb(20.147705%, 40.939331%, 85.456848%)" offset="0.0234375"/><stop stop-opacity="1" stop-color="rgb(19.989014%, 41.264343%, 85.572815%)" offset="0.03125"/><stop stop-opacity="1" stop-color="rgb(19.828796%, 41.589355%, 85.687256%)" offset="0.0390625"/><stop stop-opacity="1" stop-color="rgb(19.670105%, 41.914368%, 85.803223%)" offset="0.046875"/><stop stop-opacity="1" stop-color="rgb(19.509888%, 42.240906%, 85.917664%)" offset="0.0546875"/><stop stop-opacity="1" stop-color="rgb(19.34967%, 42.565918%, 86.032104%)" offset="0.0625"/><stop stop-opacity="1" stop-color="rgb(19.190979%, 42.89093%, 86.148071%)" offset="0.0703125"/><stop stop-opacity="1" stop-color="rgb(19.030762%, 43.215942%, 86.262512%)" offset="0.078125"/><stop stop-opacity="1" stop-color="rgb(18.87207%, 43.540955%, 86.378479%)" offset="0.0859375"/><stop stop-opacity="1" stop-color="rgb(18.711853%, 43.865967%, 86.49292%)" offset="0.09375"/><stop stop-opacity="1" stop-color="rgb(18.553162%, 44.190979%, 86.608887%)" offset="0.101563"/><stop stop-opacity="1" stop-color="rgb(18.392944%, 44.515991%, 86.723328%)" offset="0.109375"/><stop stop-opacity="1" stop-color="rgb(18.234253%, 44.841003%, 86.839294%)" offset="0.117188"/><stop stop-opacity="1" stop-color="rgb(18.074036%, 45.166016%, 86.953735%)" offset="0.125"/><stop stop-opacity="1" stop-color="rgb(17.915344%, 45.491028%, 87.069702%)" offset="0.132813"/><stop stop-opacity="1" stop-color="rgb(17.755127%, 45.81604%, 87.184143%)" offset="0.140625"/><stop stop-opacity="1" stop-color="rgb(17.59491%, 46.141052%, 87.298584%)" offset="0.148438"/><stop stop-opacity="1" stop-color="rgb(17.436218%, 46.466064%, 87.414551%)" offset="0.15625"/><stop stop-opacity="1" stop-color="rgb(17.276001%, 46.791077%, 87.528992%)" offset="0.164063"/><stop stop-opacity="1" stop-color="rgb(17.11731%, 47.116089%, 87.644958%)" offset="0.171875"/><stop stop-opacity="1" stop-color="rgb(16.957092%, 47.441101%, 87.759399%)" offset="0.179688"/><stop stop-opacity="1" stop-color="rgb(16.798401%, 47.766113%, 87.875366%)" offset="0.1875"/><stop stop-opacity="1" stop-color="rgb(16.638184%, 48.091125%, 87.989807%)" offset="0.195313"/><stop stop-opacity="1" stop-color="rgb(16.479492%, 48.416138%, 88.105774%)" offset="0.203125"/><stop stop-opacity="1" stop-color="rgb(16.319275%, 48.74115%, 88.220215%)" offset="0.210938"/><stop stop-opacity="1" stop-color="rgb(16.160583%, 49.066162%, 88.336182%)" offset="0.21875"/><stop stop-opacity="1" stop-color="rgb(16.000366%, 49.391174%, 88.450623%)" offset="0.226563"/><stop stop-opacity="1" stop-color="rgb(15.840149%, 49.716187%, 88.565063%)" offset="0.234375"/><stop stop-opacity="1" stop-color="rgb(15.681458%, 50.041199%, 88.68103%)" offset="0.242188"/><stop stop-opacity="1" stop-color="rgb(15.52124%, 50.366211%, 88.795471%)" offset="0.25"/><stop stop-opacity="1" stop-color="rgb(15.362549%, 50.692749%, 88.911438%)" offset="0.257812"/><stop stop-opacity="1" stop-color="rgb(15.202332%, 51.017761%, 89.025879%)" offset="0.265625"/><stop stop-opacity="1" stop-color="rgb(15.04364%, 51.342773%, 89.141846%)" offset="0.273438"/><stop stop-opacity="1" stop-color="rgb(14.883423%, 51.667786%, 89.256287%)" offset="0.28125"/><stop stop-opacity="1" stop-color="rgb(14.724731%, 51.992798%, 89.372253%)" offset="0.289063"/><stop stop-opacity="1" stop-color="rgb(14.564514%, 52.31781%, 89.486694%)" offset="0.296875"/><stop stop-opacity="1" stop-color="rgb(14.404297%, 52.642822%, 89.601135%)" offset="0.304688"/><stop stop-opacity="1" stop-color="rgb(14.245605%, 52.967834%, 89.717102%)" offset="0.3125"/><stop stop-opacity="1" stop-color="rgb(14.085388%, 53.292847%, 89.831543%)" offset="0.320313"/><stop stop-opacity="1" stop-color="rgb(13.926697%, 53.617859%, 89.94751%)" offset="0.328125"/><stop stop-opacity="1" stop-color="rgb(13.766479%, 53.942871%, 90.061951%)" offset="0.335938"/><stop stop-opacity="1" stop-color="rgb(13.607788%, 54.267883%, 90.177917%)" offset="0.34375"/><stop stop-opacity="1" stop-color="rgb(13.447571%, 54.592896%, 90.292358%)" offset="0.351563"/><stop stop-opacity="1" stop-color="rgb(13.288879%, 54.917908%, 90.408325%)" offset="0.359375"/><stop stop-opacity="1" stop-color="rgb(13.128662%, 55.24292%, 90.522766%)" offset="0.367188"/><stop stop-opacity="1" stop-color="rgb(12.969971%, 55.567932%, 90.638733%)" offset="0.375"/><stop stop-opacity="1" stop-color="rgb(12.809753%, 55.892944%, 90.753174%)" offset="0.382812"/><stop stop-opacity="1" stop-color="rgb(12.649536%, 56.217957%, 90.867615%)" offset="0.390625"/><stop stop-opacity="1" stop-color="rgb(12.490845%, 56.542969%, 90.983582%)" offset="0.398438"/><stop stop-opacity="1" stop-color="rgb(12.330627%, 56.867981%, 91.098022%)" offset="0.40625"/><stop stop-opacity="1" stop-color="rgb(12.171936%, 57.192993%, 91.213989%)" offset="0.414063"/><stop stop-opacity="1" stop-color="rgb(12.011719%, 57.518005%, 91.32843%)" offset="0.421875"/><stop stop-opacity="1" stop-color="rgb(11.853027%, 57.843018%, 91.444397%)" offset="0.429688"/><stop stop-opacity="1" stop-color="rgb(11.69281%, 58.16803%, 91.558838%)" offset="0.4375"/><stop stop-opacity="1" stop-color="rgb(11.534119%, 58.493042%, 91.674805%)" offset="0.445313"/><stop stop-opacity="1" stop-color="rgb(11.373901%, 58.818054%, 91.789246%)" offset="0.453125"/><stop stop-opacity="1" stop-color="rgb(11.21521%, 59.144592%, 91.905212%)" offset="0.460938"/><stop stop-opacity="1" stop-color="rgb(11.054993%, 59.469604%, 92.019653%)" offset="0.46875"/><stop stop-opacity="1" stop-color="rgb(10.894775%, 59.794617%, 92.134094%)" offset="0.476563"/><stop stop-opacity="1" stop-color="rgb(10.736084%, 60.119629%, 92.250061%)" offset="0.484375"/><stop stop-opacity="1" stop-color="rgb(10.575867%, 60.444641%, 92.364502%)" offset="0.492188"/><stop stop-opacity="1" stop-color="rgb(10.417175%, 60.769653%, 92.480469%)" offset="0.5"/><stop stop-opacity="1" stop-color="rgb(10.256958%, 61.094666%, 92.59491%)" offset="0.507812"/><stop stop-opacity="1" stop-color="rgb(10.098267%, 61.419678%, 92.710876%)" offset="0.515625"/><stop stop-opacity="1" stop-color="rgb(9.938049%, 61.74469%, 92.825317%)" offset="0.523438"/><stop stop-opacity="1" stop-color="rgb(9.779358%, 62.069702%, 92.941284%)" offset="0.53125"/><stop stop-opacity="1" stop-color="rgb(9.619141%, 62.394714%, 93.055725%)" offset="0.539062"/><stop stop-opacity="1" stop-color="rgb(9.460449%, 62.719727%, 93.170166%)" offset="0.546875"/><stop stop-opacity="1" stop-color="rgb(9.300232%, 63.044739%, 93.286133%)" offset="0.554688"/><stop stop-opacity="1" stop-color="rgb(9.140015%, 63.369751%, 93.400574%)" offset="0.5625"/><stop stop-opacity="1" stop-color="rgb(8.981323%, 63.694763%, 93.516541%)" offset="0.570312"/><stop stop-opacity="1" stop-color="rgb(8.821106%, 64.019775%, 93.630981%)" offset="0.578125"/><stop stop-opacity="1" stop-color="rgb(8.662415%, 64.344788%, 93.746948%)" offset="0.585938"/><stop stop-opacity="1" stop-color="rgb(8.502197%, 64.6698%, 93.861389%)" offset="0.59375"/><stop stop-opacity="1" stop-color="rgb(8.343506%, 64.994812%, 93.977356%)" offset="0.601562"/><stop stop-opacity="1" stop-color="rgb(8.183289%, 65.319824%, 94.091797%)" offset="0.609375"/><stop stop-opacity="1" stop-color="rgb(8.024597%, 65.644836%, 94.207764%)" offset="0.617188"/><stop stop-opacity="1" stop-color="rgb(7.86438%, 65.969849%, 94.322205%)" offset="0.625"/><stop stop-opacity="1" stop-color="rgb(7.705688%, 66.294861%, 94.436646%)" offset="0.632812"/><stop stop-opacity="1" stop-color="rgb(7.545471%, 66.619873%, 94.552612%)" offset="0.640625"/><stop stop-opacity="1" stop-color="rgb(7.385254%, 66.944885%, 94.667053%)" offset="0.648438"/><stop stop-opacity="1" stop-color="rgb(7.226562%, 67.269897%, 94.78302%)" offset="0.65625"/><stop stop-opacity="1" stop-color="rgb(7.066345%, 67.596436%, 94.897461%)" offset="0.664062"/><stop stop-opacity="1" stop-color="rgb(6.907654%, 67.921448%, 95.013428%)" offset="0.671875"/><stop stop-opacity="1" stop-color="rgb(6.747437%, 68.24646%, 95.127869%)" offset="0.679688"/><stop stop-opacity="1" stop-color="rgb(6.588745%, 68.571472%, 95.243835%)" offset="0.6875"/><stop stop-opacity="1" stop-color="rgb(6.428528%, 68.896484%, 95.358276%)" offset="0.695312"/><stop stop-opacity="1" stop-color="rgb(6.269836%, 69.221497%, 95.472717%)" offset="0.703125"/><stop stop-opacity="1" stop-color="rgb(6.109619%, 69.546509%, 95.588684%)" offset="0.710938"/><stop stop-opacity="1" stop-color="rgb(5.950928%, 69.871521%, 95.703125%)" offset="0.71875"/><stop stop-opacity="1" stop-color="rgb(5.79071%, 70.196533%, 95.819092%)" offset="0.726562"/><stop stop-opacity="1" stop-color="rgb(5.630493%, 70.521545%, 95.933533%)" offset="0.734375"/><stop stop-opacity="1" stop-color="rgb(5.471802%, 70.846558%, 96.0495%)" offset="0.742188"/><stop stop-opacity="1" stop-color="rgb(5.311584%, 71.17157%, 96.16394%)" offset="0.75"/><stop stop-opacity="1" stop-color="rgb(5.152893%, 71.496582%, 96.279907%)" offset="0.757812"/><stop stop-opacity="1" stop-color="rgb(4.992676%, 71.821594%, 96.394348%)" offset="0.765625"/><stop stop-opacity="1" stop-color="rgb(4.833984%, 72.146606%, 96.510315%)" offset="0.773438"/><stop stop-opacity="1" stop-color="rgb(4.673767%, 72.471619%, 96.624756%)" offset="0.78125"/><stop stop-opacity="1" stop-color="rgb(4.515076%, 72.796631%, 96.739197%)" offset="0.789062"/><stop stop-opacity="1" stop-color="rgb(4.354858%, 73.121643%, 96.855164%)" offset="0.796875"/><stop stop-opacity="1" stop-color="rgb(4.196167%, 73.446655%, 96.969604%)" offset="0.804688"/><stop stop-opacity="1" stop-color="rgb(4.03595%, 73.771667%, 97.085571%)" offset="0.8125"/><stop stop-opacity="1" stop-color="rgb(3.875732%, 74.09668%, 97.200012%)" offset="0.820312"/><stop stop-opacity="1" stop-color="rgb(3.717041%, 74.421692%, 97.315979%)" offset="0.828125"/><stop stop-opacity="1" stop-color="rgb(3.556824%, 74.746704%, 97.43042%)" offset="0.835938"/><stop stop-opacity="1" stop-color="rgb(3.398132%, 75.071716%, 97.546387%)" offset="0.84375"/><stop stop-opacity="1" stop-color="rgb(3.237915%, 75.396729%, 97.660828%)" offset="0.851562"/><stop stop-opacity="1" stop-color="rgb(3.079224%, 75.721741%, 97.776794%)" offset="0.859375"/><stop stop-opacity="1" stop-color="rgb(2.919006%, 76.048279%, 97.891235%)" offset="0.867188"/><stop stop-opacity="1" stop-color="rgb(2.760315%, 76.373291%, 98.005676%)" offset="0.875"/><stop stop-opacity="1" stop-color="rgb(2.600098%, 76.698303%, 98.121643%)" offset="0.882812"/><stop stop-opacity="1" stop-color="rgb(2.43988%, 77.023315%, 98.236084%)" offset="0.890625"/><stop stop-opacity="1" stop-color="rgb(2.281189%, 77.348328%, 98.352051%)" offset="0.898438"/><stop stop-opacity="1" stop-color="rgb(2.120972%, 77.67334%, 98.466492%)" offset="0.90625"/><stop stop-opacity="1" stop-color="rgb(1.96228%, 77.998352%, 98.582458%)" offset="0.914062"/><stop stop-opacity="1" stop-color="rgb(1.802063%, 78.323364%, 98.696899%)" offset="0.921875"/><stop stop-opacity="1" stop-color="rgb(1.643372%, 78.648376%, 98.812866%)" offset="0.929688"/><stop stop-opacity="1" stop-color="rgb(1.483154%, 78.973389%, 98.927307%)" offset="0.9375"/><stop stop-opacity="1" stop-color="rgb(1.324463%, 79.298401%, 99.041748%)" offset="0.945312"/><stop stop-opacity="1" stop-color="rgb(1.164246%, 79.623413%, 99.157715%)" offset="0.953125"/><stop stop-opacity="1" stop-color="rgb(1.005554%, 79.948425%, 99.272156%)" offset="0.960938"/><stop stop-opacity="1" stop-color="rgb(0.845337%, 80.273438%, 99.388123%)" offset="0.96875"/><stop stop-opacity="1" stop-color="rgb(0.68512%, 80.59845%, 99.502563%)" offset="0.976562"/><stop stop-opacity="1" stop-color="rgb(0.526428%, 80.923462%, 99.61853%)" offset="0.984375"/><stop stop-opacity="1" stop-color="rgb(0.366211%, 81.248474%, 99.732971%)" offset="0.992188"/><stop stop-opacity="1" stop-color="rgb(0.20752%, 81.573486%, 99.848938%)" offset="1"/></linearGradient><clipPath id="74184c6766"><path d="M 17 14 L 28 14 L 28 19 L 17 19 Z M 17 14 " clip-rule="nonzero"/></clipPath><clipPath id="5446b67d3a"><path d="M 27.15625 15.46875 C 27.15625 15.273438 27.089844 15.109375 26.953125 14.972656 C 26.816406 14.835938 26.648438 14.765625 26.453125 14.765625 L 18.457031 14.765625 C 18.261719 14.765625 18.097656 14.835938 17.960938 14.972656 C 17.824219 15.109375 17.753906 15.273438 17.753906 15.46875 L 17.753906 17.664062 C 17.753906 17.859375 17.824219 18.027344 17.960938 18.164062 C 18.097656 18.300781 18.261719 18.367188 18.457031 18.367188 L 26.453125 18.367188 C 26.648438 18.367188 26.816406 18.300781 26.953125 18.164062 C 27.089844 18.027344 27.15625 17.859375 27.15625 17.664062 Z M 25.839844 16.875 L 19.160156 16.875 L 19.160156 16.171875 L 25.839844 16.171875 Z M 25.839844 16.875 " clip-rule="nonzero"/></clipPath><linearGradient x1="255.5" gradientTransform="matrix(0.0878906, 0, 0, 0.0878906, 0.0000005, 0)" y1="167.999994" x2="255.5" gradientUnits="userSpaceOnUse" y2="208.999993" id="da7076b0a5"><stop stop-opacity="1" stop-color="rgb(14.350891%, 52.754211%, 89.642334%)" offset="0"/><stop stop-opacity="1" stop-color="rgb(14.291382%, 52.87323%, 89.683533%)" offset="0.0625"/><stop stop-opacity="1" stop-color="rgb(14.175415%, 53.111267%, 89.767456%)" offset="0.125"/><stop stop-opacity="1" stop-color="rgb(14.057922%, 53.349304%, 89.851379%)" offset="0.1875"/><stop stop-opacity="1" stop-color="rgb(13.941956%, 53.587341%, 89.936829%)" offset="0.25"/><stop stop-opacity="1" stop-color="rgb(13.824463%, 53.825378%, 90.020752%)" offset="0.3125"/><stop stop-opacity="1" stop-color="rgb(13.708496%, 54.063416%, 90.104675%)" offset="0.375"/><stop stop-opacity="1" stop-color="rgb(13.591003%, 54.301453%, 90.188599%)" offset="0.4375"/><stop stop-opacity="1" stop-color="rgb(13.473511%, 54.53949%, 90.274048%)" offset="0.5"/><stop stop-opacity="1" stop-color="rgb(13.357544%, 54.777527%, 90.357971%)" offset="0.5625"/><stop stop-opacity="1" stop-color="rgb(13.240051%, 55.015564%, 90.441895%)" offset="0.625"/><stop stop-opacity="1" stop-color="rgb(13.124084%, 55.253601%, 90.525818%)" offset="0.6875"/><stop stop-opacity="1" stop-color="rgb(13.006592%, 55.491638%, 90.611267%)" offset="0.75"/><stop stop-opacity="1" stop-color="rgb(12.890625%, 55.729675%, 90.69519%)" offset="0.8125"/><stop stop-opacity="1" stop-color="rgb(12.773132%, 55.967712%, 90.779114%)" offset="0.875"/><stop stop-opacity="1" stop-color="rgb(12.657166%, 56.20575%, 90.863037%)" offset="0.9375"/><stop stop-opacity="1" stop-color="rgb(12.539673%, 56.443787%, 90.948486%)" offset="1"/></linearGradient><clipPath id="e4dfbcf1b7"><path d="M 17 10 L 22 10 L 22 14 L 17 14 Z M 17 10 " clip-rule="nonzero"/></clipPath><clipPath id="b24e3473b0"><path d="M 21.09375 10.898438 C 21.09375 10.703125 21.023438 10.539062 20.886719 10.402344 C 20.75 10.265625 20.585938 10.195312 20.390625 10.195312 L 18.105469 10.195312 C 17.910156 10.195312 17.746094 10.265625 17.609375 10.402344 C 17.472656 10.539062 17.402344 10.703125 17.402344 10.898438 L 17.402344 13.183594 C 17.402344 13.378906 17.472656 13.542969 17.609375 13.679688 C 17.746094 13.816406 17.910156 13.886719 18.105469 13.886719 L 20.390625 13.886719 C 20.585938 13.886719 20.75 13.816406 20.886719 13.679688 C 21.023438 13.542969 21.09375 13.378906 21.09375 13.183594 Z M 18.808594 11.601562 L 19.6875 11.601562 L 19.6875 12.480469 L 18.808594 12.480469 Z M 18.808594 11.601562 " clip-rule="nonzero"/></clipPath><linearGradient x1="219" gradientTransform="matrix(0.0878906, 0, 0, 0.0878906, 0.0000005, 0)" y1="115.999996" x2="219" gradientUnits="userSpaceOnUse" y2="157.999994" id="201acedfdb"><stop stop-opacity="1" stop-color="rgb(16.720581%, 47.924805%, 87.930298%)" offset="0"/><stop stop-opacity="1" stop-color="rgb(16.661072%, 48.045349%, 87.973022%)" offset="0.0625"/><stop stop-opacity="1" stop-color="rgb(16.542053%, 48.28949%, 88.059998%)" offset="0.125"/><stop stop-opacity="1" stop-color="rgb(16.421509%, 48.53363%, 88.146973%)" offset="0.1875"/><stop stop-opacity="1" stop-color="rgb(16.30249%, 48.777771%, 88.232422%)" offset="0.25"/><stop stop-opacity="1" stop-color="rgb(16.181946%, 49.021912%, 88.319397%)" offset="0.3125"/><stop stop-opacity="1" stop-color="rgb(16.062927%, 49.264526%, 88.404846%)" offset="0.375"/><stop stop-opacity="1" stop-color="rgb(15.942383%, 49.508667%, 88.491821%)" offset="0.4375"/><stop stop-opacity="1" stop-color="rgb(15.823364%, 49.752808%, 88.578796%)" offset="0.5"/><stop stop-opacity="1" stop-color="rgb(15.704346%, 49.996948%, 88.664246%)" offset="0.5625"/><stop stop-opacity="1" stop-color="rgb(15.583801%, 50.241089%, 88.751221%)" offset="0.625"/><stop stop-opacity="1" stop-color="rgb(15.464783%, 50.485229%, 88.83667%)" offset="0.6875"/><stop stop-opacity="1" stop-color="rgb(15.344238%, 50.727844%, 88.923645%)" offset="0.75"/><stop stop-opacity="1" stop-color="rgb(15.22522%, 50.971985%, 89.01062%)" offset="0.8125"/><stop stop-opacity="1" stop-color="rgb(15.104675%, 51.216125%, 89.096069%)" offset="0.875"/><stop stop-opacity="1" stop-color="rgb(14.985657%, 51.460266%, 89.183044%)" offset="0.9375"/><stop stop-opacity="1" stop-color="rgb(14.866638%, 51.704407%, 89.268494%)" offset="1"/></linearGradient><clipPath id="4fef14e965"><path d="M 23 10 L 28 10 L 28 14 L 23 14 Z M 23 10 " clip-rule="nonzero"/></clipPath><clipPath id="406d549239"><path d="M 27.597656 10.898438 C 27.597656 10.703125 27.527344 10.539062 27.390625 10.402344 C 27.253906 10.265625 27.089844 10.195312 26.894531 10.195312 L 24.609375 10.195312 C 24.414062 10.195312 24.25 10.265625 24.113281 10.402344 C 23.976562 10.539062 23.90625 10.703125 23.90625 10.898438 L 23.90625 13.183594 C 23.90625 13.378906 23.976562 13.542969 24.113281 13.679688 C 24.25 13.816406 24.414062 13.886719 24.609375 13.886719 L 26.894531 13.886719 C 27.089844 13.886719 27.253906 13.816406 27.390625 13.679688 C 27.527344 13.542969 27.597656 13.378906 27.597656 13.183594 Z M 25.3125 11.601562 L 26.191406 11.601562 L 26.191406 12.480469 L 25.3125 12.480469 Z M 25.3125 11.601562 " clip-rule="nonzero"/></clipPath><linearGradient x1="293" gradientTransform="matrix(0.0878906, 0, 0, 0.0878906, 0.0000005, 0)" y1="115.999996" x2="293" gradientUnits="userSpaceOnUse" y2="157.999994" id="1fdc05a1d8"><stop stop-opacity="1" stop-color="rgb(16.720581%, 47.924805%, 87.930298%)" offset="0"/><stop stop-opacity="1" stop-color="rgb(16.661072%, 48.045349%, 87.973022%)" offset="0.0625"/><stop stop-opacity="1" stop-color="rgb(16.542053%, 48.28949%, 88.059998%)" offset="0.125"/><stop stop-opacity="1" stop-color="rgb(16.421509%, 48.53363%, 88.146973%)" offset="0.1875"/><stop stop-opacity="1" stop-color="rgb(16.30249%, 48.777771%, 88.232422%)" offset="0.25"/><stop stop-opacity="1" stop-color="rgb(16.181946%, 49.021912%, 88.319397%)" offset="0.3125"/><stop stop-opacity="1" stop-color="rgb(16.062927%, 49.264526%, 88.404846%)" offset="0.375"/><stop stop-opacity="1" stop-color="rgb(15.942383%, 49.508667%, 88.491821%)" offset="0.4375"/><stop stop-opacity="1" stop-color="rgb(15.823364%, 49.752808%, 88.578796%)" offset="0.5"/><stop stop-opacity="1" stop-color="rgb(15.704346%, 49.996948%, 88.664246%)" offset="0.5625"/><stop stop-opacity="1" stop-color="rgb(15.583801%, 50.241089%, 88.751221%)" offset="0.625"/><stop stop-opacity="1" stop-color="rgb(15.464783%, 50.485229%, 88.83667%)" offset="0.6875"/><stop stop-opacity="1" stop-color="rgb(15.344238%, 50.727844%, 88.923645%)" offset="0.75"/><stop stop-opacity="1" stop-color="rgb(15.22522%, 50.971985%, 89.01062%)" offset="0.8125"/><stop stop-opacity="1" stop-color="rgb(15.104675%, 51.216125%, 89.096069%)" offset="0.875"/><stop stop-opacity="1" stop-color="rgb(14.985657%, 51.460266%, 89.183044%)" offset="0.9375"/><stop stop-opacity="1" stop-color="rgb(14.866638%, 51.704407%, 89.268494%)" offset="1"/></linearGradient></defs><g clip-path="url(#7e21861cd7)"><g clip-path="url(#33bb8ea5ae)"><path fill="url(#20679a0109)" d="M 1.046875 2.820312 L 1.046875 42.1875 L 43.953125 42.1875 L 43.953125 2.820312 Z M 1.046875 2.820312 " fill-rule="nonzero"/></g></g><g clip-path="url(#74184c6766)"><g clip-path="url(#5446b67d3a)"><path fill="url(#da7076b0a5)" d="M 17.753906 14.765625 L 17.753906 18.367188 L 27.15625 18.367188 L 27.15625 14.765625 Z M 17.753906 14.765625 " fill-rule="nonzero"/></g></g><g clip-path="url(#e4dfbcf1b7)"><g clip-path="url(#b24e3473b0)"><path fill="url(#201acedfdb)" d="M 17.402344 10.195312 L 17.402344 13.886719 L 21.09375 13.886719 L 21.09375 10.195312 Z M 17.402344 10.195312 " fill-rule="nonzero"/></g></g><g clip-path="url(#4fef14e965)"><g clip-path="url(#406d549239)"><path fill="url(#1fdc05a1d8)" d="M 23.90625 10.195312 L 23.90625 13.886719 L 27.597656 13.886719 L 27.597656 10.195312 Z M 23.90625 10.195312 " fill-rule="nonzero"/></g></g></svg>