<svg xmlns="http://www.w3.org/2000/svg" xmlns:xlink="http://www.w3.org/1999/xlink" width="60" zoomAndPan="magnify" viewBox="0 0 45 44.999999" height="60" preserveAspectRatio="xMidYMid meet" version="1.0"><defs><clipPath id="1abc20cdd4"><path d="M 2 2 L 43 2 L 43 43 L 2 43 Z M 2 2 " clip-rule="nonzero"/></clipPath><clipPath id="75c57a3f7d"><path d="M 34.660156 12.792969 C 34.550781 12.074219 34.375 11.367188 34.136719 10.679688 C 33.898438 9.988281 33.601562 9.328125 33.246094 8.691406 C 32.890625 8.054688 32.484375 7.453125 32.019531 6.886719 C 31.558594 6.324219 31.050781 5.804688 30.496094 5.332031 C 29.941406 4.855469 29.351562 4.433594 28.722656 4.066406 C 28.09375 3.695312 27.4375 3.386719 26.753906 3.132812 C 26.070312 2.878906 25.367188 2.691406 24.652344 2.5625 C 23.933594 2.433594 23.210938 2.367188 22.480469 2.367188 C 21.75 2.367188 21.027344 2.433594 20.308594 2.5625 C 19.589844 2.691406 18.890625 2.878906 18.207031 3.132812 C 17.523438 3.386719 16.867188 3.695312 16.238281 4.066406 C 15.609375 4.433594 15.015625 4.855469 14.464844 5.332031 C 13.910156 5.804688 13.402344 6.324219 12.941406 6.890625 C 12.476562 7.453125 12.070312 8.054688 11.714844 8.691406 C 11.359375 9.328125 11.0625 9.992188 10.824219 10.679688 C 10.585938 11.367188 10.410156 12.074219 10.300781 12.792969 C 9.765625 12.808594 9.238281 12.875 8.71875 12.996094 C 8.199219 13.113281 7.695312 13.28125 7.207031 13.496094 C 6.71875 13.710938 6.257812 13.972656 5.824219 14.28125 C 5.386719 14.585938 4.984375 14.933594 4.613281 15.316406 C 4.246094 15.703125 3.917969 16.121094 3.628906 16.570312 C 3.34375 17.019531 3.101562 17.492188 2.90625 17.988281 C 2.710938 18.484375 2.566406 18.996094 2.472656 19.519531 C 2.375 20.042969 2.332031 20.574219 2.339844 21.105469 C 2.347656 21.640625 2.40625 22.167969 2.519531 22.6875 C 2.628906 23.210938 2.789062 23.71875 3 24.207031 C 3.207031 24.699219 3.464844 25.164062 3.765625 25.605469 C 4.066406 26.042969 4.40625 26.453125 4.785156 26.824219 C 5.164062 27.199219 5.578125 27.535156 6.023438 27.828125 C 6.46875 28.121094 6.9375 28.367188 7.433594 28.570312 C 7.925781 28.773438 8.433594 28.925781 8.957031 29.027344 C 9.480469 29.128906 10.007812 29.179688 10.542969 29.179688 L 17.929688 29.179688 L 17.929688 32.519531 L 14.199219 32.519531 C 14.011719 32.511719 13.851562 32.578125 13.722656 32.710938 C 13.589844 32.84375 13.527344 33.003906 13.535156 33.191406 L 13.535156 36.546875 C 13.015625 36.667969 12.570312 36.917969 12.195312 37.296875 C 11.929688 37.566406 11.726562 37.875 11.582031 38.222656 C 11.4375 38.574219 11.367188 38.9375 11.367188 39.316406 C 11.367188 39.695312 11.4375 40.058594 11.585938 40.40625 C 11.730469 40.753906 11.9375 41.0625 12.203125 41.328125 C 12.46875 41.597656 12.777344 41.804688 13.128906 41.949219 C 13.476562 42.09375 13.839844 42.164062 14.21875 42.164062 C 14.597656 42.164062 14.960938 42.09375 15.308594 41.949219 C 15.660156 41.804688 15.96875 41.597656 16.234375 41.328125 C 16.503906 41.0625 16.707031 40.753906 16.855469 40.40625 C 17 40.058594 17.070312 39.695312 17.074219 39.316406 C 17.074219 38.9375 17 38.574219 16.855469 38.222656 C 16.714844 37.875 16.507812 37.566406 16.242188 37.296875 C 15.871094 36.9375 15.4375 36.6875 14.941406 36.546875 L 14.941406 33.925781 L 18.59375 33.925781 C 18.792969 33.917969 18.964844 33.847656 19.109375 33.703125 C 19.253906 33.5625 19.328125 33.390625 19.335938 33.191406 L 19.335938 29.179688 L 21.796875 29.179688 L 21.796875 37.03125 C 21.574219 37.089844 21.359375 37.171875 21.15625 37.28125 C 20.953125 37.386719 20.765625 37.519531 20.59375 37.671875 C 20.421875 37.828125 20.269531 38 20.140625 38.191406 C 20.011719 38.378906 19.90625 38.585938 19.824219 38.800781 C 19.742188 39.015625 19.6875 39.238281 19.664062 39.46875 C 19.636719 39.695312 19.636719 39.925781 19.664062 40.15625 C 19.695312 40.382812 19.75 40.605469 19.832031 40.820312 C 19.914062 41.035156 20.019531 41.238281 20.152344 41.429688 C 20.285156 41.617188 20.4375 41.789062 20.609375 41.941406 C 20.78125 42.09375 20.972656 42.226562 21.175781 42.332031 C 21.378906 42.4375 21.59375 42.519531 21.816406 42.574219 C 22.042969 42.628906 22.269531 42.65625 22.5 42.65625 C 22.730469 42.65625 22.957031 42.628906 23.183594 42.574219 C 23.40625 42.519531 23.621094 42.4375 23.824219 42.332031 C 24.027344 42.226562 24.21875 42.09375 24.390625 41.941406 C 24.5625 41.789062 24.714844 41.617188 24.847656 41.429688 C 24.980469 41.238281 25.085938 41.035156 25.167969 40.820312 C 25.25 40.605469 25.304688 40.382812 25.335938 40.15625 C 25.363281 39.925781 25.363281 39.695312 25.335938 39.46875 C 25.3125 39.238281 25.257812 39.015625 25.175781 38.800781 C 25.09375 38.585938 24.988281 38.378906 24.859375 38.191406 C 24.730469 38 24.578125 37.828125 24.40625 37.671875 C 24.234375 37.519531 24.046875 37.386719 23.84375 37.28125 C 23.640625 37.171875 23.425781 37.089844 23.203125 37.03125 L 23.203125 29.179688 L 25.664062 29.179688 L 25.664062 33.191406 C 25.671875 33.390625 25.746094 33.5625 25.890625 33.703125 C 26.035156 33.847656 26.207031 33.917969 26.40625 33.925781 L 30.058594 33.925781 L 30.058594 36.546875 C 29.5625 36.6875 29.128906 36.9375 28.757812 37.296875 C 28.488281 37.566406 28.277344 37.878906 28.128906 38.230469 C 27.980469 38.582031 27.902344 38.953125 27.902344 39.335938 C 27.902344 39.71875 27.972656 40.085938 28.117188 40.441406 C 28.261719 40.792969 28.472656 41.105469 28.742188 41.378906 C 29.011719 41.648438 29.324219 41.859375 29.675781 42.003906 C 30.03125 42.152344 30.398438 42.226562 30.78125 42.226562 C 31.164062 42.226562 31.53125 42.152344 31.886719 42.003906 C 32.238281 41.859375 32.550781 41.648438 32.820312 41.378906 C 33.089844 41.105469 33.300781 40.792969 33.445312 40.441406 C 33.589844 40.085938 33.660156 39.71875 33.660156 39.335938 C 33.65625 38.953125 33.582031 38.582031 33.433594 38.230469 C 33.285156 37.878906 33.074219 37.566406 32.804688 37.296875 C 32.429688 36.917969 31.984375 36.667969 31.464844 36.546875 L 31.464844 33.191406 C 31.472656 33.003906 31.410156 32.84375 31.277344 32.710938 C 31.148438 32.578125 30.988281 32.511719 30.800781 32.519531 L 27.070312 32.519531 L 27.070312 29.179688 L 34.507812 29.179688 C 39.03125 29.179688 42.6875 25.453125 42.65625 20.929688 C 42.652344 20.402344 42.601562 19.878906 42.496094 19.363281 C 42.390625 18.847656 42.238281 18.34375 42.035156 17.855469 C 41.835938 17.367188 41.589844 16.90625 41.296875 16.464844 C 41.007812 16.027344 40.675781 15.617188 40.308594 15.242188 C 39.9375 14.867188 39.535156 14.527344 39.101562 14.230469 C 38.667969 13.929688 38.207031 13.675781 37.722656 13.46875 C 37.238281 13.257812 36.738281 13.097656 36.226562 12.984375 C 35.710938 12.871094 35.1875 12.804688 34.660156 12.792969 Z M 15.226562 40.347656 C 15.144531 40.433594 15.050781 40.503906 14.949219 40.566406 C 14.847656 40.628906 14.738281 40.675781 14.625 40.710938 C 14.511719 40.746094 14.394531 40.765625 14.277344 40.773438 C 14.160156 40.777344 14.042969 40.769531 13.925781 40.75 C 13.808594 40.726562 13.695312 40.691406 13.589844 40.640625 C 13.480469 40.589844 13.378906 40.527344 13.289062 40.453125 C 13.195312 40.378906 13.113281 40.296875 13.039062 40.199219 C 12.96875 40.105469 12.910156 40.003906 12.863281 39.894531 C 12.816406 39.785156 12.78125 39.671875 12.761719 39.554688 C 12.746094 39.4375 12.738281 39.320312 12.75 39.203125 C 12.757812 39.082031 12.78125 38.96875 12.820312 38.855469 C 12.859375 38.742188 12.910156 38.636719 12.972656 38.539062 C 13.039062 38.4375 13.113281 38.347656 13.199219 38.265625 C 13.285156 38.183594 13.382812 38.113281 13.484375 38.054688 C 13.589844 37.996094 13.695312 37.953125 13.8125 37.921875 C 13.925781 37.890625 14.042969 37.871094 14.160156 37.867188 C 14.175781 37.871094 14.1875 37.871094 14.199219 37.871094 C 14.210938 37.871094 14.222656 37.871094 14.238281 37.867188 C 14.527344 37.875 14.792969 37.960938 15.03125 38.128906 C 15.269531 38.292969 15.441406 38.511719 15.550781 38.78125 C 15.65625 39.050781 15.683594 39.328125 15.625 39.613281 C 15.566406 39.898438 15.433594 40.140625 15.226562 40.347656 Z M 23.953125 39.804688 C 23.953125 39.925781 23.9375 40.042969 23.910156 40.15625 C 23.882812 40.273438 23.839844 40.382812 23.78125 40.488281 C 23.726562 40.59375 23.65625 40.691406 23.578125 40.78125 C 23.496094 40.871094 23.40625 40.945312 23.308594 41.011719 C 23.207031 41.078125 23.101562 41.132812 22.988281 41.171875 C 22.878906 41.214844 22.761719 41.238281 22.644531 41.25 C 22.523438 41.261719 22.40625 41.261719 22.285156 41.242188 C 22.167969 41.226562 22.054688 41.195312 21.945312 41.148438 C 21.832031 41.101562 21.730469 41.042969 21.632812 40.972656 C 21.539062 40.902344 21.453125 40.820312 21.375 40.726562 C 21.300781 40.632812 21.238281 40.535156 21.1875 40.425781 C 21.136719 40.320312 21.097656 40.207031 21.074219 40.089844 C 21.050781 39.972656 21.042969 39.851562 21.046875 39.734375 C 21.054688 39.613281 21.074219 39.496094 21.109375 39.382812 C 21.144531 39.269531 21.191406 39.160156 21.253906 39.058594 C 21.316406 38.957031 21.386719 38.863281 21.472656 38.777344 C 21.746094 38.503906 22.074219 38.363281 22.460938 38.351562 C 22.476562 38.355469 22.488281 38.355469 22.5 38.355469 C 22.511719 38.355469 22.523438 38.355469 22.539062 38.351562 C 22.726562 38.359375 22.910156 38.398438 23.082031 38.472656 C 23.257812 38.550781 23.410156 38.65625 23.542969 38.789062 C 23.671875 38.925781 23.773438 39.082031 23.847656 39.257812 C 23.917969 39.433594 23.953125 39.617188 23.953125 39.804688 Z M 32.253906 39.320312 C 32.253906 39.441406 32.238281 39.558594 32.210938 39.671875 C 32.179688 39.789062 32.140625 39.898438 32.082031 40.003906 C 32.027344 40.109375 31.957031 40.207031 31.878906 40.296875 C 31.796875 40.382812 31.707031 40.460938 31.609375 40.527344 C 31.507812 40.59375 31.402344 40.648438 31.289062 40.6875 C 31.179688 40.730469 31.0625 40.753906 30.941406 40.765625 C 30.824219 40.777344 30.707031 40.773438 30.585938 40.757812 C 30.46875 40.738281 30.355469 40.707031 30.246094 40.664062 C 30.132812 40.617188 30.03125 40.558594 29.933594 40.488281 C 29.839844 40.417969 29.753906 40.335938 29.675781 40.242188 C 29.601562 40.148438 29.539062 40.050781 29.488281 39.941406 C 29.4375 39.832031 29.398438 39.722656 29.375 39.605469 C 29.351562 39.488281 29.34375 39.367188 29.347656 39.25 C 29.355469 39.128906 29.375 39.011719 29.410156 38.898438 C 29.445312 38.785156 29.492188 38.675781 29.554688 38.574219 C 29.617188 38.46875 29.6875 38.378906 29.773438 38.292969 C 30.046875 38.019531 30.375 37.878906 30.761719 37.867188 C 30.777344 37.871094 30.789062 37.871094 30.800781 37.871094 C 30.8125 37.871094 30.824219 37.871094 30.839844 37.867188 C 31.027344 37.875 31.210938 37.914062 31.382812 37.988281 C 31.554688 38.066406 31.710938 38.171875 31.839844 38.304688 C 31.972656 38.441406 32.074219 38.597656 32.148438 38.773438 C 32.21875 38.949219 32.253906 39.128906 32.253906 39.320312 Z M 34.5 27.421875 L 27.070312 27.421875 L 27.070312 18.429688 C 27.070312 18.234375 27 18.070312 26.863281 17.933594 C 26.726562 17.792969 26.5625 17.726562 26.367188 17.726562 C 26.171875 17.726562 26.007812 17.792969 25.871094 17.933594 C 25.734375 18.070312 25.664062 18.234375 25.664062 18.429688 L 25.664062 27.421875 L 23.203125 27.421875 L 23.203125 18.429688 C 23.203125 18.234375 23.132812 18.070312 22.996094 17.933594 C 22.859375 17.792969 22.695312 17.726562 22.5 17.726562 C 22.304688 17.726562 22.140625 17.792969 22.003906 17.933594 C 21.867188 18.070312 21.796875 18.234375 21.796875 18.429688 L 21.796875 27.421875 L 19.335938 27.421875 L 19.335938 18.429688 C 19.335938 18.234375 19.265625 18.070312 19.128906 17.933594 C 18.992188 17.792969 18.828125 17.726562 18.632812 17.726562 C 18.4375 17.726562 18.273438 17.792969 18.136719 17.933594 C 18 18.070312 17.929688 18.234375 17.929688 18.429688 L 17.929688 27.421875 L 10.542969 27.421875 C 10.121094 27.421875 9.707031 27.378906 9.292969 27.296875 C 8.878906 27.214844 8.480469 27.09375 8.089844 26.933594 C 7.703125 26.773438 7.332031 26.578125 6.980469 26.34375 C 6.632812 26.109375 6.308594 25.847656 6.007812 25.550781 C 5.710938 25.253906 5.441406 24.929688 5.207031 24.582031 C 4.972656 24.234375 4.769531 23.867188 4.609375 23.476562 C 4.445312 23.089844 4.320312 22.691406 4.234375 22.277344 C 4.148438 21.867188 4.105469 21.449219 4.101562 21.03125 C 4.097656 20.609375 4.136719 20.191406 4.214844 19.777344 C 4.296875 19.363281 4.417969 18.960938 4.578125 18.570312 C 4.734375 18.179688 4.933594 17.808594 5.164062 17.457031 C 5.398438 17.105469 5.664062 16.777344 5.960938 16.480469 C 6.257812 16.179688 6.582031 15.914062 6.933594 15.679688 C 7.28125 15.441406 7.652344 15.246094 8.039062 15.082031 C 8.429688 14.921875 8.832031 14.796875 9.246094 14.714844 C 9.660156 14.632812 10.078125 14.589844 10.5 14.589844 L 11.074219 14.589844 C 11.304688 14.585938 11.503906 14.503906 11.671875 14.347656 C 11.839844 14.191406 11.929688 14 11.953125 13.769531 C 12.011719 13.117188 12.128906 12.476562 12.308594 11.84375 C 12.488281 11.214844 12.722656 10.605469 13.011719 10.015625 C 13.304688 9.429688 13.648438 8.871094 14.042969 8.347656 C 14.433594 7.824219 14.875 7.339844 15.359375 6.898438 C 15.839844 6.453125 16.359375 6.058594 16.917969 5.710938 C 17.472656 5.363281 18.058594 5.070312 18.667969 4.832031 C 19.277344 4.59375 19.90625 4.410156 20.550781 4.289062 C 21.195312 4.164062 21.84375 4.101562 22.5 4.097656 C 23.15625 4.097656 23.804688 4.160156 24.449219 4.28125 C 25.09375 4.402344 25.71875 4.585938 26.328125 4.824219 C 26.9375 5.0625 27.523438 5.355469 28.078125 5.699219 C 28.632812 6.046875 29.152344 6.441406 29.632812 6.886719 C 30.117188 7.328125 30.554688 7.8125 30.945312 8.339844 C 31.335938 8.863281 31.675781 9.421875 31.964844 10.007812 C 32.253906 10.597656 32.484375 11.207031 32.660156 11.839844 C 32.832031 12.46875 32.949219 13.113281 33.003906 13.765625 C 33.023438 13.996094 33.113281 14.1875 33.28125 14.347656 C 33.449219 14.503906 33.648438 14.585938 33.878906 14.589844 L 34.457031 14.589844 C 37.984375 14.589844 40.875 17.433594 40.898438 20.960938 C 40.902344 21.382812 40.863281 21.804688 40.785156 22.21875 C 40.707031 22.632812 40.585938 23.035156 40.425781 23.425781 C 40.269531 23.820312 40.070312 24.191406 39.839844 24.542969 C 39.605469 24.894531 39.339844 25.222656 39.042969 25.523438 C 38.746094 25.824219 38.421875 26.089844 38.074219 26.328125 C 37.722656 26.5625 37.351562 26.761719 36.960938 26.925781 C 36.574219 27.089844 36.171875 27.210938 35.757812 27.296875 C 35.34375 27.378906 34.925781 27.421875 34.5 27.421875 Z M 34.5 27.421875 " clip-rule="nonzero"/></clipPath><linearGradient x1="256" gradientTransform="matrix(0.0878906, 0, 0, 0.0878906, 0.0000005, 0)" y1="26.950696" x2="256" gradientUnits="userSpaceOnUse" y2="485.349133" id="db9bcf5d3e"><stop stop-opacity="1" stop-color="rgb(20.562744%, 40.097046%, 85.159302%)" offset="0"/><stop stop-opacity="1" stop-color="rgb(20.481873%, 40.260315%, 85.215759%)" offset="0.0078125"/><stop stop-opacity="1" stop-color="rgb(20.321655%, 40.585327%, 85.331726%)" offset="0.015625"/><stop stop-opacity="1" stop-color="rgb(20.161438%, 40.911865%, 85.447693%)" offset="0.0234375"/><stop stop-opacity="1" stop-color="rgb(20.001221%, 41.238403%, 85.56366%)" offset="0.03125"/><stop stop-opacity="1" stop-color="rgb(19.841003%, 41.564941%, 85.678101%)" offset="0.0390625"/><stop stop-opacity="1" stop-color="rgb(19.680786%, 41.891479%, 85.794067%)" offset="0.046875"/><stop stop-opacity="1" stop-color="rgb(19.520569%, 42.218018%, 85.910034%)" offset="0.0546875"/><stop stop-opacity="1" stop-color="rgb(19.360352%, 42.544556%, 86.026001%)" offset="0.0625"/><stop stop-opacity="1" stop-color="rgb(19.200134%, 42.869568%, 86.140442%)" offset="0.0703125"/><stop stop-opacity="1" stop-color="rgb(19.039917%, 43.196106%, 86.256409%)" offset="0.078125"/><stop stop-opacity="1" stop-color="rgb(18.8797%, 43.522644%, 86.372375%)" offset="0.0859375"/><stop stop-opacity="1" stop-color="rgb(18.721008%, 43.849182%, 86.486816%)" offset="0.09375"/><stop stop-opacity="1" stop-color="rgb(18.560791%, 44.17572%, 86.602783%)" offset="0.101562"/><stop stop-opacity="1" stop-color="rgb(18.400574%, 44.502258%, 86.71875%)" offset="0.109375"/><stop stop-opacity="1" stop-color="rgb(18.240356%, 44.827271%, 86.834717%)" offset="0.117187"/><stop stop-opacity="1" stop-color="rgb(18.080139%, 45.153809%, 86.949158%)" offset="0.125"/><stop stop-opacity="1" stop-color="rgb(17.919922%, 45.480347%, 87.065125%)" offset="0.132812"/><stop stop-opacity="1" stop-color="rgb(17.759705%, 45.806885%, 87.181091%)" offset="0.140625"/><stop stop-opacity="1" stop-color="rgb(17.599487%, 46.133423%, 87.297058%)" offset="0.148438"/><stop stop-opacity="1" stop-color="rgb(17.43927%, 46.459961%, 87.411499%)" offset="0.15625"/><stop stop-opacity="1" stop-color="rgb(17.279053%, 46.786499%, 87.527466%)" offset="0.164063"/><stop stop-opacity="1" stop-color="rgb(17.118835%, 47.111511%, 87.643433%)" offset="0.171875"/><stop stop-opacity="1" stop-color="rgb(16.958618%, 47.438049%, 87.759399%)" offset="0.179688"/><stop stop-opacity="1" stop-color="rgb(16.798401%, 47.764587%, 87.87384%)" offset="0.1875"/><stop stop-opacity="1" stop-color="rgb(16.638184%, 48.091125%, 87.989807%)" offset="0.195313"/><stop stop-opacity="1" stop-color="rgb(16.477966%, 48.417664%, 88.105774%)" offset="0.203125"/><stop stop-opacity="1" stop-color="rgb(16.317749%, 48.744202%, 88.221741%)" offset="0.210938"/><stop stop-opacity="1" stop-color="rgb(16.157532%, 49.069214%, 88.336182%)" offset="0.21875"/><stop stop-opacity="1" stop-color="rgb(15.99884%, 49.395752%, 88.452148%)" offset="0.226563"/><stop stop-opacity="1" stop-color="rgb(15.838623%, 49.72229%, 88.568115%)" offset="0.234375"/><stop stop-opacity="1" stop-color="rgb(15.678406%, 50.048828%, 88.682556%)" offset="0.242188"/><stop stop-opacity="1" stop-color="rgb(15.518188%, 50.375366%, 88.798523%)" offset="0.25"/><stop stop-opacity="1" stop-color="rgb(15.357971%, 50.701904%, 88.91449%)" offset="0.257812"/><stop stop-opacity="1" stop-color="rgb(15.197754%, 51.028442%, 89.030457%)" offset="0.265625"/><stop stop-opacity="1" stop-color="rgb(15.037537%, 51.353455%, 89.144897%)" offset="0.273438"/><stop stop-opacity="1" stop-color="rgb(14.877319%, 51.679993%, 89.260864%)" offset="0.28125"/><stop stop-opacity="1" stop-color="rgb(14.717102%, 52.006531%, 89.376831%)" offset="0.289063"/><stop stop-opacity="1" stop-color="rgb(14.556885%, 52.333069%, 89.492798%)" offset="0.296875"/><stop stop-opacity="1" stop-color="rgb(14.396667%, 52.659607%, 89.607239%)" offset="0.304688"/><stop stop-opacity="1" stop-color="rgb(14.23645%, 52.986145%, 89.723206%)" offset="0.3125"/><stop stop-opacity="1" stop-color="rgb(14.076233%, 53.311157%, 89.839172%)" offset="0.320313"/><stop stop-opacity="1" stop-color="rgb(13.916016%, 53.637695%, 89.955139%)" offset="0.328125"/><stop stop-opacity="1" stop-color="rgb(13.755798%, 53.964233%, 90.06958%)" offset="0.335938"/><stop stop-opacity="1" stop-color="rgb(13.595581%, 54.290771%, 90.185547%)" offset="0.34375"/><stop stop-opacity="1" stop-color="rgb(13.435364%, 54.61731%, 90.301514%)" offset="0.351563"/><stop stop-opacity="1" stop-color="rgb(13.276672%, 54.943848%, 90.41748%)" offset="0.359375"/><stop stop-opacity="1" stop-color="rgb(13.116455%, 55.26886%, 90.531921%)" offset="0.367188"/><stop stop-opacity="1" stop-color="rgb(12.956238%, 55.595398%, 90.647888%)" offset="0.375"/><stop stop-opacity="1" stop-color="rgb(12.796021%, 55.921936%, 90.763855%)" offset="0.382813"/><stop stop-opacity="1" stop-color="rgb(12.635803%, 56.248474%, 90.878296%)" offset="0.390625"/><stop stop-opacity="1" stop-color="rgb(12.475586%, 56.575012%, 90.994263%)" offset="0.398438"/><stop stop-opacity="1" stop-color="rgb(12.315369%, 56.90155%, 91.110229%)" offset="0.40625"/><stop stop-opacity="1" stop-color="rgb(12.155151%, 57.228088%, 91.226196%)" offset="0.414063"/><stop stop-opacity="1" stop-color="rgb(11.994934%, 57.553101%, 91.340637%)" offset="0.421875"/><stop stop-opacity="1" stop-color="rgb(11.834717%, 57.879639%, 91.456604%)" offset="0.429688"/><stop stop-opacity="1" stop-color="rgb(11.6745%, 58.206177%, 91.572571%)" offset="0.4375"/><stop stop-opacity="1" stop-color="rgb(11.514282%, 58.532715%, 91.688538%)" offset="0.445312"/><stop stop-opacity="1" stop-color="rgb(11.354065%, 58.859253%, 91.802979%)" offset="0.453125"/><stop stop-opacity="1" stop-color="rgb(11.193848%, 59.185791%, 91.918945%)" offset="0.460938"/><stop stop-opacity="1" stop-color="rgb(11.03363%, 59.510803%, 92.034912%)" offset="0.46875"/><stop stop-opacity="1" stop-color="rgb(10.873413%, 59.837341%, 92.150879%)" offset="0.476563"/><stop stop-opacity="1" stop-color="rgb(10.713196%, 60.163879%, 92.26532%)" offset="0.484375"/><stop stop-opacity="1" stop-color="rgb(10.552979%, 60.490417%, 92.381287%)" offset="0.492188"/><stop stop-opacity="1" stop-color="rgb(10.394287%, 60.816956%, 92.497253%)" offset="0.5"/><stop stop-opacity="1" stop-color="rgb(10.23407%, 61.143494%, 92.61322%)" offset="0.507812"/><stop stop-opacity="1" stop-color="rgb(10.073853%, 61.470032%, 92.727661%)" offset="0.515625"/><stop stop-opacity="1" stop-color="rgb(9.913635%, 61.795044%, 92.843628%)" offset="0.523438"/><stop stop-opacity="1" stop-color="rgb(9.753418%, 62.121582%, 92.959595%)" offset="0.53125"/><stop stop-opacity="1" stop-color="rgb(9.593201%, 62.44812%, 93.074036%)" offset="0.539063"/><stop stop-opacity="1" stop-color="rgb(9.432983%, 62.774658%, 93.190002%)" offset="0.546875"/><stop stop-opacity="1" stop-color="rgb(9.272766%, 63.101196%, 93.305969%)" offset="0.554687"/><stop stop-opacity="1" stop-color="rgb(9.112549%, 63.427734%, 93.421936%)" offset="0.5625"/><stop stop-opacity="1" stop-color="rgb(8.952332%, 63.752747%, 93.536377%)" offset="0.570312"/><stop stop-opacity="1" stop-color="rgb(8.792114%, 64.079285%, 93.652344%)" offset="0.578125"/><stop stop-opacity="1" stop-color="rgb(8.631897%, 64.405823%, 93.768311%)" offset="0.585938"/><stop stop-opacity="1" stop-color="rgb(8.47168%, 64.732361%, 93.884277%)" offset="0.59375"/><stop stop-opacity="1" stop-color="rgb(8.311462%, 65.058899%, 93.998718%)" offset="0.601562"/><stop stop-opacity="1" stop-color="rgb(8.151245%, 65.385437%, 94.114685%)" offset="0.609375"/><stop stop-opacity="1" stop-color="rgb(7.991028%, 65.710449%, 94.230652%)" offset="0.617188"/><stop stop-opacity="1" stop-color="rgb(7.830811%, 66.036987%, 94.346619%)" offset="0.625"/><stop stop-opacity="1" stop-color="rgb(7.672119%, 66.363525%, 94.46106%)" offset="0.632813"/><stop stop-opacity="1" stop-color="rgb(7.511902%, 66.690063%, 94.577026%)" offset="0.640625"/><stop stop-opacity="1" stop-color="rgb(7.351685%, 67.016602%, 94.692993%)" offset="0.648437"/><stop stop-opacity="1" stop-color="rgb(7.191467%, 67.34314%, 94.80896%)" offset="0.65625"/><stop stop-opacity="1" stop-color="rgb(7.03125%, 67.669678%, 94.923401%)" offset="0.664062"/><stop stop-opacity="1" stop-color="rgb(6.871033%, 67.99469%, 95.039368%)" offset="0.671875"/><stop stop-opacity="1" stop-color="rgb(6.710815%, 68.321228%, 95.155334%)" offset="0.679688"/><stop stop-opacity="1" stop-color="rgb(6.550598%, 68.647766%, 95.269775%)" offset="0.6875"/><stop stop-opacity="1" stop-color="rgb(6.390381%, 68.974304%, 95.385742%)" offset="0.695312"/><stop stop-opacity="1" stop-color="rgb(6.230164%, 69.300842%, 95.501709%)" offset="0.703125"/><stop stop-opacity="1" stop-color="rgb(6.069946%, 69.62738%, 95.617676%)" offset="0.710938"/><stop stop-opacity="1" stop-color="rgb(5.909729%, 69.952393%, 95.732117%)" offset="0.71875"/><stop stop-opacity="1" stop-color="rgb(5.749512%, 70.278931%, 95.848083%)" offset="0.726563"/><stop stop-opacity="1" stop-color="rgb(5.589294%, 70.605469%, 95.96405%)" offset="0.734375"/><stop stop-opacity="1" stop-color="rgb(5.429077%, 70.932007%, 96.080017%)" offset="0.742187"/><stop stop-opacity="1" stop-color="rgb(5.26886%, 71.258545%, 96.194458%)" offset="0.75"/><stop stop-opacity="1" stop-color="rgb(5.108643%, 71.585083%, 96.310425%)" offset="0.757812"/><stop stop-opacity="1" stop-color="rgb(4.949951%, 71.911621%, 96.426392%)" offset="0.765625"/><stop stop-opacity="1" stop-color="rgb(4.789734%, 72.236633%, 96.542358%)" offset="0.773438"/><stop stop-opacity="1" stop-color="rgb(4.629517%, 72.563171%, 96.656799%)" offset="0.78125"/><stop stop-opacity="1" stop-color="rgb(4.469299%, 72.889709%, 96.772766%)" offset="0.789062"/><stop stop-opacity="1" stop-color="rgb(4.309082%, 73.216248%, 96.888733%)" offset="0.796875"/><stop stop-opacity="1" stop-color="rgb(4.148865%, 73.542786%, 97.003174%)" offset="0.804688"/><stop stop-opacity="1" stop-color="rgb(3.988647%, 73.869324%, 97.119141%)" offset="0.8125"/><stop stop-opacity="1" stop-color="rgb(3.82843%, 74.194336%, 97.235107%)" offset="0.820312"/><stop stop-opacity="1" stop-color="rgb(3.668213%, 74.520874%, 97.351074%)" offset="0.828125"/><stop stop-opacity="1" stop-color="rgb(3.507996%, 74.847412%, 97.465515%)" offset="0.835937"/><stop stop-opacity="1" stop-color="rgb(3.347778%, 75.17395%, 97.581482%)" offset="0.84375"/><stop stop-opacity="1" stop-color="rgb(3.187561%, 75.500488%, 97.697449%)" offset="0.851562"/><stop stop-opacity="1" stop-color="rgb(3.027344%, 75.827026%, 97.813416%)" offset="0.859375"/><stop stop-opacity="1" stop-color="rgb(2.867126%, 76.152039%, 97.927856%)" offset="0.867188"/><stop stop-opacity="1" stop-color="rgb(2.706909%, 76.478577%, 98.043823%)" offset="0.875"/><stop stop-opacity="1" stop-color="rgb(2.546692%, 76.805115%, 98.15979%)" offset="0.882812"/><stop stop-opacity="1" stop-color="rgb(2.386475%, 77.131653%, 98.275757%)" offset="0.890625"/><stop stop-opacity="1" stop-color="rgb(2.227783%, 77.458191%, 98.390198%)" offset="0.898438"/><stop stop-opacity="1" stop-color="rgb(2.067566%, 77.784729%, 98.506165%)" offset="0.90625"/><stop stop-opacity="1" stop-color="rgb(1.907349%, 78.111267%, 98.622131%)" offset="0.914062"/><stop stop-opacity="1" stop-color="rgb(1.747131%, 78.436279%, 98.738098%)" offset="0.921875"/><stop stop-opacity="1" stop-color="rgb(1.586914%, 78.762817%, 98.852539%)" offset="0.929687"/><stop stop-opacity="1" stop-color="rgb(1.426697%, 79.089355%, 98.968506%)" offset="0.9375"/><stop stop-opacity="1" stop-color="rgb(1.266479%, 79.415894%, 99.084473%)" offset="0.945312"/><stop stop-opacity="1" stop-color="rgb(1.106262%, 79.742432%, 99.198914%)" offset="0.953125"/><stop stop-opacity="1" stop-color="rgb(0.946045%, 80.06897%, 99.31488%)" offset="0.960938"/><stop stop-opacity="1" stop-color="rgb(0.785828%, 80.393982%, 99.430847%)" offset="0.96875"/><stop stop-opacity="1" stop-color="rgb(0.62561%, 80.72052%, 99.546814%)" offset="0.976562"/><stop stop-opacity="1" stop-color="rgb(0.465393%, 81.047058%, 99.661255%)" offset="0.984375"/><stop stop-opacity="1" stop-color="rgb(0.305176%, 81.373596%, 99.777222%)" offset="0.992188"/><stop stop-opacity="1" stop-color="rgb(0.144958%, 81.700134%, 99.893188%)" offset="1"/></linearGradient></defs><g clip-path="url(#1abc20cdd4)"><g clip-path="url(#75c57a3f7d)"><path fill="url(#db9bcf5d3e)" d="M 2.332031 2.367188 L 2.332031 42.65625 L 42.6875 42.65625 L 42.6875 2.367188 Z M 2.332031 2.367188 " fill-rule="nonzero"/></g></g></svg>