<svg xmlns="http://www.w3.org/2000/svg" xmlns:xlink="http://www.w3.org/1999/xlink" width="60" zoomAndPan="magnify" viewBox="0 0 45 44.999999" height="60" preserveAspectRatio="xMidYMid meet" version="1.0"><defs><clipPath id="a09412da93"><path d="M 8 30 L 28 30 L 28 32 L 8 32 Z M 8 30 " clip-rule="nonzero"/></clipPath><clipPath id="6f47d980ec"><path d="M 27.03125 30.320312 L 9.160156 30.320312 C 8.992188 30.320312 8.84375 30.382812 8.726562 30.503906 C 8.605469 30.621094 8.546875 30.769531 8.546875 30.9375 C 8.546875 31.105469 8.605469 31.253906 8.726562 31.371094 C 8.84375 31.492188 8.992188 31.550781 9.160156 31.550781 L 27.03125 31.550781 C 27.203125 31.550781 27.347656 31.492188 27.464844 31.371094 C 27.585938 31.253906 27.648438 31.105469 27.648438 30.9375 C 27.648438 30.769531 27.585938 30.621094 27.464844 30.503906 C 27.347656 30.382812 27.203125 30.320312 27.03125 30.320312 Z M 27.03125 30.320312 " clip-rule="nonzero"/></clipPath><linearGradient x1="205.89101" gradientTransform="matrix(0.0878906, 0, 0, 0.0878906, 0.0000005, 0)" y1="344.999988" x2="205.89101" gradientUnits="userSpaceOnUse" y2="358.999987" id="217e0fdc8d"><stop stop-opacity="1" stop-color="rgb(7.063293%, 67.604065%, 94.900513%)" offset="0"/><stop stop-opacity="1" stop-color="rgb(6.987%, 67.759705%, 94.955444%)" offset="0.25"/><stop stop-opacity="1" stop-color="rgb(6.832886%, 68.07251%, 95.066833%)" offset="0.5"/><stop stop-opacity="1" stop-color="rgb(6.680298%, 68.383789%, 95.176697%)" offset="0.75"/><stop stop-opacity="1" stop-color="rgb(6.52771%, 68.696594%, 95.288086%)" offset="1"/></linearGradient><clipPath id="00fcf947b5"><path d="M 8 25 L 20 25 L 20 27 L 8 27 Z M 8 25 " clip-rule="nonzero"/></clipPath><clipPath id="2b36ded124"><path d="M 9.160156 26.453125 L 19.289062 26.453125 C 19.460938 26.453125 19.605469 26.394531 19.722656 26.273438 C 19.84375 26.15625 19.90625 26.007812 19.90625 25.839844 C 19.90625 25.671875 19.84375 25.523438 19.722656 25.40625 C 19.605469 25.285156 19.460938 25.222656 19.289062 25.222656 L 9.160156 25.222656 C 8.992188 25.222656 8.84375 25.285156 8.726562 25.40625 C 8.605469 25.523438 8.546875 25.671875 8.546875 25.839844 C 8.546875 26.007812 8.605469 26.15625 8.726562 26.273438 C 8.84375 26.394531 8.992188 26.453125 9.160156 26.453125 Z M 9.160156 26.453125 " clip-rule="nonzero"/></clipPath><linearGradient x1="161.847" gradientTransform="matrix(0.0878906, 0, 0, 0.0878906, 0.0000005, 0)" y1="286.99999" x2="161.847" gradientUnits="userSpaceOnUse" y2="300.99999" id="2414bf463f"><stop stop-opacity="1" stop-color="rgb(9.602356%, 62.431335%, 93.069458%)" offset="0"/><stop stop-opacity="1" stop-color="rgb(9.524536%, 62.586975%, 93.12439%)" offset="0.25"/><stop stop-opacity="1" stop-color="rgb(9.371948%, 62.89978%, 93.234253%)" offset="0.5"/><stop stop-opacity="1" stop-color="rgb(9.217834%, 63.212585%, 93.345642%)" offset="0.75"/><stop stop-opacity="1" stop-color="rgb(9.065247%, 63.523865%, 93.455505%)" offset="1"/></linearGradient><clipPath id="0220c348b7"><path d="M 23 5 L 36 5 L 36 21 L 23 21 Z M 23 5 " clip-rule="nonzero"/></clipPath><clipPath id="ade2c454aa"><path d="M 26.121094 20.652344 L 32.980469 20.652344 C 33.292969 20.652344 33.59375 20.589844 33.882812 20.46875 C 34.175781 20.347656 34.429688 20.171875 34.648438 19.949219 C 34.871094 19.726562 35.039062 19.46875 35.15625 19.179688 C 35.277344 18.886719 35.335938 18.585938 35.332031 18.269531 L 35.332031 13.195312 C 35.332031 12.933594 35.285156 12.679688 35.203125 12.433594 C 35.117188 12.183594 34.996094 11.957031 34.839844 11.75 C 34.679688 11.542969 34.492188 11.363281 34.277344 11.21875 C 34.058594 11.070312 33.824219 10.960938 33.574219 10.890625 L 33.574219 9.621094 C 33.574219 9.355469 33.550781 9.097656 33.496094 8.839844 C 33.445312 8.582031 33.371094 8.332031 33.269531 8.089844 C 33.171875 7.84375 33.046875 7.613281 32.902344 7.394531 C 32.753906 7.179688 32.589844 6.976562 32.402344 6.789062 C 32.21875 6.605469 32.015625 6.4375 31.796875 6.292969 C 31.578125 6.144531 31.347656 6.023438 31.105469 5.921875 C 30.863281 5.820312 30.613281 5.746094 30.355469 5.695312 C 30.097656 5.644531 29.835938 5.617188 29.574219 5.617188 C 29.3125 5.617188 29.050781 5.644531 28.792969 5.695312 C 28.535156 5.746094 28.285156 5.820312 28.042969 5.921875 C 27.800781 6.023438 27.570312 6.144531 27.351562 6.292969 C 27.132812 6.4375 26.933594 6.605469 26.746094 6.789062 C 26.5625 6.976562 26.394531 7.179688 26.25 7.394531 C 26.101562 7.613281 25.980469 7.84375 25.878906 8.089844 C 25.78125 8.332031 25.703125 8.582031 25.652344 8.839844 C 25.601562 9.097656 25.574219 9.355469 25.574219 9.621094 L 25.574219 10.890625 C 25.316406 10.953125 25.070312 11.054688 24.84375 11.195312 C 24.621094 11.339844 24.421875 11.515625 24.253906 11.722656 C 24.085938 11.933594 23.960938 12.164062 23.871094 12.414062 C 23.78125 12.667969 23.734375 12.925781 23.730469 13.195312 L 23.730469 18.269531 C 23.734375 18.585938 23.796875 18.890625 23.917969 19.183594 C 24.039062 19.472656 24.214844 19.730469 24.4375 19.953125 C 24.660156 20.175781 24.917969 20.347656 25.210938 20.46875 C 25.503906 20.59375 25.808594 20.652344 26.121094 20.652344 Z M 29.574219 6.820312 C 29.945312 6.820312 30.296875 6.894531 30.640625 7.039062 C 30.980469 7.183594 31.277344 7.386719 31.539062 7.648438 C 31.796875 7.910156 31.996094 8.210938 32.136719 8.554688 C 32.277344 8.894531 32.34375 9.25 32.34375 9.621094 L 32.34375 10.808594 L 26.804688 10.808594 L 26.804688 9.621094 C 26.804688 9.25 26.875 8.894531 27.015625 8.554688 C 27.152344 8.210938 27.351562 7.910156 27.613281 7.648438 C 27.871094 7.386719 28.171875 7.183594 28.511719 7.039062 C 28.851562 6.894531 29.207031 6.820312 29.574219 6.820312 Z M 34.101562 18.28125 C 34.101562 18.433594 34.074219 18.578125 34.015625 18.71875 C 33.957031 18.859375 33.875 18.980469 33.765625 19.089844 C 33.660156 19.195312 33.535156 19.277344 33.394531 19.335938 C 33.257812 19.394531 33.109375 19.421875 32.957031 19.421875 L 26.101562 19.421875 C 25.953125 19.421875 25.804688 19.394531 25.667969 19.335938 C 25.527344 19.277344 25.402344 19.195312 25.296875 19.089844 C 25.1875 18.980469 25.105469 18.859375 25.046875 18.71875 C 24.988281 18.578125 24.960938 18.433594 24.960938 18.28125 L 24.960938 13.183594 C 24.960938 13.03125 24.988281 12.886719 25.046875 12.746094 C 25.105469 12.605469 25.1875 12.484375 25.296875 12.375 C 25.402344 12.269531 25.527344 12.1875 25.667969 12.128906 C 25.804688 12.070312 25.953125 12.039062 26.101562 12.039062 L 32.957031 12.039062 C 33.109375 12.039062 33.257812 12.070312 33.394531 12.128906 C 33.535156 12.1875 33.660156 12.269531 33.765625 12.375 C 33.875 12.484375 33.957031 12.605469 34.015625 12.746094 C 34.074219 12.886719 34.101562 13.03125 34.101562 13.183594 Z M 34.101562 18.28125 " clip-rule="nonzero"/></clipPath><linearGradient x1="336" gradientTransform="matrix(0.0878906, 0, 0, 0.0878906, 0.0000005, 0)" y1="63.915586" x2="336" gradientUnits="userSpaceOnUse" y2="234.999992" id="c24859b085"><stop stop-opacity="1" stop-color="rgb(19.364929%, 42.536926%, 86.022949%)" offset="0"/><stop stop-opacity="1" stop-color="rgb(19.30542%, 42.655945%, 86.064148%)" offset="0.015625"/><stop stop-opacity="1" stop-color="rgb(19.189453%, 42.893982%, 86.149597%)" offset="0.03125"/><stop stop-opacity="1" stop-color="rgb(19.07196%, 43.133545%, 86.233521%)" offset="0.046875"/><stop stop-opacity="1" stop-color="rgb(18.954468%, 43.371582%, 86.317444%)" offset="0.0625"/><stop stop-opacity="1" stop-color="rgb(18.838501%, 43.609619%, 86.402893%)" offset="0.078125"/><stop stop-opacity="1" stop-color="rgb(18.721008%, 43.847656%, 86.486816%)" offset="0.09375"/><stop stop-opacity="1" stop-color="rgb(18.603516%, 44.087219%, 86.57074%)" offset="0.109375"/><stop stop-opacity="1" stop-color="rgb(18.487549%, 44.325256%, 86.656189%)" offset="0.125"/><stop stop-opacity="1" stop-color="rgb(18.370056%, 44.563293%, 86.740112%)" offset="0.140625"/><stop stop-opacity="1" stop-color="rgb(18.252563%, 44.801331%, 86.824036%)" offset="0.15625"/><stop stop-opacity="1" stop-color="rgb(18.136597%, 45.040894%, 86.909485%)" offset="0.171875"/><stop stop-opacity="1" stop-color="rgb(18.019104%, 45.278931%, 86.993408%)" offset="0.1875"/><stop stop-opacity="1" stop-color="rgb(17.901611%, 45.516968%, 87.077332%)" offset="0.203125"/><stop stop-opacity="1" stop-color="rgb(17.785645%, 45.755005%, 87.162781%)" offset="0.21875"/><stop stop-opacity="1" stop-color="rgb(17.668152%, 45.994568%, 87.246704%)" offset="0.234375"/><stop stop-opacity="1" stop-color="rgb(17.550659%, 46.232605%, 87.330627%)" offset="0.25"/><stop stop-opacity="1" stop-color="rgb(17.434692%, 46.470642%, 87.416077%)" offset="0.265625"/><stop stop-opacity="1" stop-color="rgb(17.3172%, 46.708679%, 87.5%)" offset="0.28125"/><stop stop-opacity="1" stop-color="rgb(17.199707%, 46.946716%, 87.583923%)" offset="0.296875"/><stop stop-opacity="1" stop-color="rgb(17.08374%, 47.186279%, 87.669373%)" offset="0.3125"/><stop stop-opacity="1" stop-color="rgb(16.966248%, 47.424316%, 87.753296%)" offset="0.328125"/><stop stop-opacity="1" stop-color="rgb(16.848755%, 47.662354%, 87.837219%)" offset="0.34375"/><stop stop-opacity="1" stop-color="rgb(16.732788%, 47.900391%, 87.922668%)" offset="0.359375"/><stop stop-opacity="1" stop-color="rgb(16.615295%, 48.139954%, 88.006592%)" offset="0.375"/><stop stop-opacity="1" stop-color="rgb(16.497803%, 48.377991%, 88.090515%)" offset="0.390625"/><stop stop-opacity="1" stop-color="rgb(16.38031%, 48.616028%, 88.175964%)" offset="0.40625"/><stop stop-opacity="1" stop-color="rgb(16.264343%, 48.854065%, 88.259888%)" offset="0.421875"/><stop stop-opacity="1" stop-color="rgb(16.146851%, 49.093628%, 88.343811%)" offset="0.4375"/><stop stop-opacity="1" stop-color="rgb(16.029358%, 49.331665%, 88.42926%)" offset="0.453125"/><stop stop-opacity="1" stop-color="rgb(15.913391%, 49.569702%, 88.513184%)" offset="0.46875"/><stop stop-opacity="1" stop-color="rgb(15.795898%, 49.807739%, 88.597107%)" offset="0.484375"/><stop stop-opacity="1" stop-color="rgb(15.678406%, 50.047302%, 88.682556%)" offset="0.5"/><stop stop-opacity="1" stop-color="rgb(15.562439%, 50.285339%, 88.766479%)" offset="0.515625"/><stop stop-opacity="1" stop-color="rgb(15.444946%, 50.523376%, 88.850403%)" offset="0.53125"/><stop stop-opacity="1" stop-color="rgb(15.327454%, 50.761414%, 88.935852%)" offset="0.546875"/><stop stop-opacity="1" stop-color="rgb(15.211487%, 50.999451%, 89.019775%)" offset="0.5625"/><stop stop-opacity="1" stop-color="rgb(15.093994%, 51.239014%, 89.103699%)" offset="0.578125"/><stop stop-opacity="1" stop-color="rgb(14.976501%, 51.477051%, 89.189148%)" offset="0.59375"/><stop stop-opacity="1" stop-color="rgb(14.860535%, 51.715088%, 89.273071%)" offset="0.609375"/><stop stop-opacity="1" stop-color="rgb(14.743042%, 51.953125%, 89.356995%)" offset="0.625"/><stop stop-opacity="1" stop-color="rgb(14.625549%, 52.192688%, 89.442444%)" offset="0.640625"/><stop stop-opacity="1" stop-color="rgb(14.509583%, 52.430725%, 89.526367%)" offset="0.65625"/><stop stop-opacity="1" stop-color="rgb(14.39209%, 52.668762%, 89.610291%)" offset="0.671875"/><stop stop-opacity="1" stop-color="rgb(14.274597%, 52.906799%, 89.69574%)" offset="0.6875"/><stop stop-opacity="1" stop-color="rgb(14.15863%, 53.146362%, 89.779663%)" offset="0.703125"/><stop stop-opacity="1" stop-color="rgb(14.041138%, 53.384399%, 89.863586%)" offset="0.71875"/><stop stop-opacity="1" stop-color="rgb(13.923645%, 53.622437%, 89.949036%)" offset="0.734375"/><stop stop-opacity="1" stop-color="rgb(13.807678%, 53.860474%, 90.032959%)" offset="0.75"/><stop stop-opacity="1" stop-color="rgb(13.690186%, 54.100037%, 90.116882%)" offset="0.765625"/><stop stop-opacity="1" stop-color="rgb(13.572693%, 54.338074%, 90.202332%)" offset="0.78125"/><stop stop-opacity="1" stop-color="rgb(13.456726%, 54.576111%, 90.286255%)" offset="0.796875"/><stop stop-opacity="1" stop-color="rgb(13.339233%, 54.814148%, 90.370178%)" offset="0.8125"/><stop stop-opacity="1" stop-color="rgb(13.221741%, 55.052185%, 90.455627%)" offset="0.828125"/><stop stop-opacity="1" stop-color="rgb(13.105774%, 55.291748%, 90.539551%)" offset="0.84375"/><stop stop-opacity="1" stop-color="rgb(12.988281%, 55.529785%, 90.623474%)" offset="0.859375"/><stop stop-opacity="1" stop-color="rgb(12.870789%, 55.767822%, 90.708923%)" offset="0.875"/><stop stop-opacity="1" stop-color="rgb(12.754822%, 56.005859%, 90.792847%)" offset="0.890625"/><stop stop-opacity="1" stop-color="rgb(12.637329%, 56.245422%, 90.87677%)" offset="0.90625"/><stop stop-opacity="1" stop-color="rgb(12.519836%, 56.483459%, 90.962219%)" offset="0.921875"/><stop stop-opacity="1" stop-color="rgb(12.40387%, 56.721497%, 91.046143%)" offset="0.9375"/><stop stop-opacity="1" stop-color="rgb(12.286377%, 56.959534%, 91.130066%)" offset="0.953125"/><stop stop-opacity="1" stop-color="rgb(12.168884%, 57.199097%, 91.215515%)" offset="0.96875"/><stop stop-opacity="1" stop-color="rgb(12.052917%, 57.437134%, 91.299438%)" offset="0.984375"/><stop stop-opacity="1" stop-color="rgb(11.935425%, 57.675171%, 91.383362%)" offset="1"/></linearGradient><clipPath id="57bae07cb5"><path d="M 28 14 L 31 14 L 31 19 L 28 19 Z M 28 14 " clip-rule="nonzero"/></clipPath><clipPath id="3d5a1e7260"><path d="M 28.828125 17.050781 L 28.828125 17.839844 C 28.828125 18.011719 28.886719 18.15625 29.007812 18.277344 C 29.128906 18.398438 29.273438 18.457031 29.441406 18.457031 C 29.613281 18.457031 29.757812 18.398438 29.878906 18.277344 C 30 18.15625 30.058594 18.011719 30.058594 17.839844 L 30.058594 17.109375 C 30.261719 17.023438 30.433594 16.898438 30.578125 16.734375 C 30.722656 16.570312 30.824219 16.382812 30.882812 16.171875 C 30.945312 15.960938 30.953125 15.75 30.914062 15.53125 C 30.878906 15.316406 30.792969 15.121094 30.664062 14.945312 C 30.539062 14.765625 30.378906 14.625 30.183594 14.519531 C 29.992188 14.417969 29.785156 14.359375 29.566406 14.351562 C 29.347656 14.339844 29.140625 14.378906 28.9375 14.464844 C 28.734375 14.550781 28.5625 14.675781 28.417969 14.839844 C 28.277344 15.007812 28.175781 15.195312 28.117188 15.40625 C 28.058594 15.617188 28.050781 15.832031 28.089844 16.046875 C 28.128906 16.261719 28.214844 16.457031 28.34375 16.632812 C 28.472656 16.808594 28.636719 16.949219 28.828125 17.050781 Z M 29.5 15.582031 C 29.597656 15.582031 29.660156 15.625 29.691406 15.714844 C 29.726562 15.800781 29.707031 15.878906 29.636719 15.9375 C 29.539062 15.90625 29.445312 15.898438 29.34375 15.917969 C 29.3125 15.878906 29.296875 15.835938 29.296875 15.785156 C 29.296875 15.648438 29.363281 15.582031 29.5 15.582031 Z M 29.5 15.582031 " clip-rule="nonzero"/></clipPath><linearGradient x1="335.66" gradientTransform="matrix(0.0878906, 0, 0, 0.0878906, 0.0000005, 0)" y1="163.16218" x2="335.66" gradientUnits="userSpaceOnUse" y2="209.999993" id="9b6b43ca31"><stop stop-opacity="1" stop-color="rgb(15.020752%, 51.38855%, 89.157104%)" offset="0"/><stop stop-opacity="1" stop-color="rgb(14.956665%, 51.51825%, 89.202881%)" offset="0.0625"/><stop stop-opacity="1" stop-color="rgb(14.828491%, 51.779175%, 89.295959%)" offset="0.125"/><stop stop-opacity="1" stop-color="rgb(14.700317%, 52.0401%, 89.389038%)" offset="0.1875"/><stop stop-opacity="1" stop-color="rgb(14.573669%, 52.301025%, 89.480591%)" offset="0.25"/><stop stop-opacity="1" stop-color="rgb(14.445496%, 52.561951%, 89.573669%)" offset="0.3125"/><stop stop-opacity="1" stop-color="rgb(14.317322%, 52.822876%, 89.665222%)" offset="0.375"/><stop stop-opacity="1" stop-color="rgb(14.189148%, 53.083801%, 89.758301%)" offset="0.4375"/><stop stop-opacity="1" stop-color="rgb(14.060974%, 53.344727%, 89.851379%)" offset="0.5"/><stop stop-opacity="1" stop-color="rgb(13.9328%, 53.607178%, 89.942932%)" offset="0.5625"/><stop stop-opacity="1" stop-color="rgb(13.804626%, 53.868103%, 90.036011%)" offset="0.625"/><stop stop-opacity="1" stop-color="rgb(13.676453%, 54.129028%, 90.127563%)" offset="0.6875"/><stop stop-opacity="1" stop-color="rgb(13.548279%, 54.389954%, 90.220642%)" offset="0.75"/><stop stop-opacity="1" stop-color="rgb(13.420105%, 54.650879%, 90.313721%)" offset="0.8125"/><stop stop-opacity="1" stop-color="rgb(13.291931%, 54.911804%, 90.405273%)" offset="0.875"/><stop stop-opacity="1" stop-color="rgb(13.163757%, 55.172729%, 90.498352%)" offset="0.9375"/><stop stop-opacity="1" stop-color="rgb(13.035583%, 55.433655%, 90.589905%)" offset="1"/></linearGradient><clipPath id="f8e3469e7e"><path d="M 2 1 L 43 1 L 43 44 L 2 44 Z M 2 1 " clip-rule="nonzero"/></clipPath><clipPath id="5e876239a9"><path d="M 37.589844 33.222656 C 37.699219 33.628906 37.914062 33.96875 38.230469 34.242188 L 38.230469 34.234375 C 38.679688 34.6875 39.21875 34.914062 39.859375 34.914062 C 40.5 34.914062 41.046875 34.683594 41.496094 34.226562 C 41.714844 34.007812 41.878906 33.757812 41.996094 33.46875 C 42.113281 33.183594 42.171875 32.886719 42.171875 32.578125 C 42.171875 32.269531 42.109375 31.972656 41.992188 31.6875 C 41.871094 31.402344 41.703125 31.152344 41.484375 30.933594 C 41.265625 30.714844 41.011719 30.546875 40.726562 30.429688 C 40.441406 30.3125 40.144531 30.257812 39.835938 30.257812 C 39.527344 30.257812 39.230469 30.320312 38.945312 30.4375 C 38.660156 30.558594 38.40625 30.726562 38.191406 30.945312 C 37.886719 31.234375 37.683594 31.582031 37.589844 31.992188 L 32.34375 31.992188 L 32.34375 29.441406 L 34.835938 29.441406 C 35 29.449219 35.136719 29.394531 35.253906 29.28125 C 35.371094 29.164062 35.425781 29.023438 35.417969 28.863281 L 35.417969 26.367188 L 37.203125 26.367188 C 37.320312 26.757812 37.519531 27.101562 37.804688 27.390625 C 38.023438 27.613281 38.273438 27.78125 38.5625 27.902344 C 38.847656 28.023438 39.144531 28.082031 39.457031 28.082031 C 39.765625 28.082031 40.066406 28.023438 40.351562 27.90625 C 40.640625 27.789062 40.894531 27.617188 41.113281 27.398438 C 41.332031 27.179688 41.503906 26.925781 41.621094 26.640625 C 41.738281 26.355469 41.800781 26.054688 41.800781 25.746094 C 41.800781 25.433594 41.738281 25.136719 41.621094 24.847656 C 41.503906 24.5625 41.332031 24.308594 41.113281 24.089844 C 40.894531 23.871094 40.640625 23.703125 40.351562 23.582031 C 40.066406 23.464844 39.765625 23.40625 39.457031 23.40625 C 39.144531 23.40625 38.847656 23.46875 38.5625 23.585938 C 38.273438 23.707031 38.023438 23.875 37.804688 24.097656 C 37.519531 24.394531 37.316406 24.742188 37.203125 25.136719 L 34.835938 25.136719 C 34.496094 25.136719 34.1875 25.398438 34.1875 25.738281 L 34.1875 28.210938 L 32.34375 28.210938 L 32.34375 24.574219 C 37.441406 23.265625 41.242188 18.628906 41.242188 13.121094 C 41.242188 6.597656 35.945312 1.285156 29.425781 1.285156 C 25.234375 1.285156 21.550781 3.515625 19.449219 6.769531 L 3.449219 6.769531 C 3.273438 6.769531 3.125 6.832031 3.003906 6.957031 C 2.878906 7.078125 2.816406 7.226562 2.8125 7.398438 L 2.8125 34.898438 C 2.816406 35.066406 2.878906 35.207031 2.996094 35.328125 L 10.929688 43.503906 C 11.050781 43.628906 11.203125 43.6875 11.375 43.679688 L 31.75 43.679688 C 31.914062 43.6875 32.054688 43.628906 32.171875 43.511719 C 32.289062 43.398438 32.347656 43.253906 32.34375 43.089844 L 32.34375 36.738281 L 34.1875 36.738281 L 34.1875 39.417969 C 34.1875 39.757812 34.496094 39.988281 34.835938 39.988281 L 37.203125 39.988281 C 37.296875 40.402344 37.496094 40.753906 37.804688 41.042969 C 37.9375 41.179688 38.085938 41.296875 38.25 41.398438 C 38.414062 41.496094 38.585938 41.574219 38.769531 41.632812 C 38.953125 41.6875 39.140625 41.722656 39.332031 41.730469 C 39.523438 41.742188 39.710938 41.726562 39.902344 41.691406 C 40.089844 41.65625 40.269531 41.597656 40.441406 41.515625 C 40.617188 41.433594 40.777344 41.332031 40.925781 41.210938 C 41.074219 41.089844 41.203125 40.953125 41.320312 40.800781 C 41.433594 40.644531 41.527344 40.480469 41.601562 40.304688 C 41.675781 40.128906 41.726562 39.945312 41.753906 39.753906 C 41.78125 39.566406 41.785156 39.375 41.769531 39.183594 C 41.75 38.996094 41.707031 38.808594 41.644531 38.628906 C 41.578125 38.449219 41.492188 38.277344 41.386719 38.121094 C 41.28125 37.960938 41.15625 37.816406 41.015625 37.6875 C 40.875 37.558594 40.71875 37.449219 40.550781 37.359375 C 40.378906 37.269531 40.203125 37.203125 40.015625 37.15625 C 39.832031 37.109375 39.644531 37.085938 39.453125 37.085938 C 38.808594 37.078125 38.261719 37.296875 37.804688 37.75 C 37.519531 38.035156 37.320312 38.371094 37.203125 38.757812 L 35.417969 38.757812 L 35.417969 36.101562 C 35.425781 35.933594 35.371094 35.792969 35.253906 35.675781 C 35.140625 35.558594 35 35.503906 34.835938 35.507812 L 32.34375 35.507812 L 32.34375 33.222656 Z M 39.058594 31.800781 C 39.160156 31.695312 39.28125 31.617188 39.414062 31.5625 C 39.550781 31.503906 39.691406 31.476562 39.835938 31.476562 C 39.984375 31.476562 40.121094 31.503906 40.257812 31.5625 C 40.390625 31.617188 40.511719 31.695312 40.613281 31.800781 C 40.71875 31.902344 40.796875 32.023438 40.851562 32.15625 C 40.910156 32.292969 40.9375 32.433594 40.9375 32.578125 C 40.9375 32.722656 40.910156 32.863281 40.851562 33 C 40.796875 33.132812 40.71875 33.253906 40.613281 33.355469 C 40.511719 33.457031 40.390625 33.539062 40.257812 33.59375 C 40.121094 33.648438 39.984375 33.679688 39.835938 33.679688 C 39.691406 33.679688 39.550781 33.648438 39.414062 33.59375 C 39.28125 33.539062 39.160156 33.457031 39.058594 33.355469 C 38.957031 33.253906 38.875 33.132812 38.820312 33 C 38.765625 32.863281 38.738281 32.722656 38.738281 32.578125 C 38.738281 32.433594 38.765625 32.292969 38.820312 32.15625 C 38.875 32.023438 38.957031 31.902344 39.058594 31.800781 Z M 38.671875 24.960938 C 38.777344 24.855469 38.894531 24.777344 39.03125 24.722656 C 39.164062 24.664062 39.304688 24.636719 39.453125 24.636719 C 39.597656 24.636719 39.738281 24.664062 39.871094 24.722656 C 40.007812 24.777344 40.125 24.855469 40.230469 24.960938 C 40.332031 25.0625 40.410156 25.179688 40.46875 25.316406 C 40.523438 25.449219 40.550781 25.589844 40.550781 25.738281 C 40.550781 25.882812 40.523438 26.023438 40.46875 26.15625 C 40.410156 26.292969 40.332031 26.410156 40.230469 26.515625 C 40.125 26.617188 40.007812 26.699219 39.871094 26.753906 C 39.738281 26.808594 39.597656 26.835938 39.453125 26.835938 C 39.304688 26.835938 39.164062 26.808594 39.03125 26.753906 C 38.894531 26.699219 38.777344 26.617188 38.671875 26.515625 C 38.570312 26.414062 38.488281 26.292969 38.433594 26.160156 C 38.375 26.023438 38.347656 25.882812 38.347656 25.738281 C 38.347656 25.589844 38.375 25.449219 38.433594 25.316406 C 38.488281 25.179688 38.570312 25.0625 38.671875 24.960938 Z M 38.671875 38.640625 C 38.777344 38.539062 38.894531 38.457031 39.03125 38.402344 C 39.164062 38.347656 39.304688 38.316406 39.453125 38.316406 C 39.597656 38.316406 39.738281 38.347656 39.871094 38.402344 C 40.007812 38.457031 40.125 38.539062 40.230469 38.640625 C 40.332031 38.742188 40.410156 38.863281 40.46875 38.996094 C 40.523438 39.132812 40.550781 39.273438 40.550781 39.417969 C 40.550781 39.5625 40.523438 39.703125 40.46875 39.839844 C 40.410156 39.972656 40.332031 40.09375 40.230469 40.195312 C 40.125 40.300781 40.007812 40.378906 39.871094 40.433594 C 39.738281 40.492188 39.597656 40.519531 39.453125 40.519531 C 39.304688 40.519531 39.164062 40.492188 39.03125 40.433594 C 38.894531 40.378906 38.777344 40.300781 38.671875 40.195312 C 38.570312 40.09375 38.488281 39.976562 38.433594 39.839844 C 38.375 39.703125 38.347656 39.5625 38.347656 39.417969 C 38.347656 39.273438 38.375 39.132812 38.433594 38.996094 C 38.488281 38.863281 38.570312 38.742188 38.671875 38.640625 Z M 29.429688 2.523438 C 30.125 2.523438 30.8125 2.59375 31.496094 2.730469 C 32.179688 2.863281 32.839844 3.066406 33.484375 3.332031 C 34.125 3.597656 34.734375 3.925781 35.316406 4.3125 C 35.894531 4.695312 36.429688 5.136719 36.921875 5.628906 C 37.410156 6.121094 37.851562 6.65625 38.238281 7.234375 C 38.625 7.8125 38.949219 8.421875 39.21875 9.066406 C 39.484375 9.707031 39.683594 10.371094 39.820312 11.050781 C 39.957031 11.734375 40.023438 12.421875 40.023438 13.121094 C 40.023438 13.816406 39.957031 14.503906 39.820312 15.1875 C 39.683594 15.867188 39.484375 16.53125 39.21875 17.171875 C 38.949219 17.816406 38.625 18.425781 38.238281 19.003906 C 37.851562 19.582031 37.414062 20.117188 36.921875 20.609375 C 36.429688 21.101562 35.894531 21.542969 35.316406 21.929688 C 34.738281 22.316406 34.125 22.640625 33.484375 22.90625 C 32.839844 23.171875 32.179688 23.375 31.496094 23.511719 C 30.8125 23.644531 30.125 23.714844 29.429688 23.714844 C 28.734375 23.714844 28.042969 23.644531 27.363281 23.511719 C 26.679688 23.375 26.019531 23.171875 25.375 22.90625 C 24.730469 22.640625 24.121094 22.316406 23.542969 21.929688 C 22.964844 21.542969 22.429688 21.101562 21.9375 20.609375 C 21.445312 20.117188 21.007812 19.582031 20.621094 19.003906 C 20.234375 18.425781 19.90625 17.816406 19.640625 17.175781 C 19.375 16.53125 19.175781 15.867188 19.039062 15.1875 C 18.902344 14.503906 18.835938 13.816406 18.835938 13.121094 C 18.835938 12.425781 18.902344 11.734375 19.039062 11.054688 C 19.175781 10.371094 19.378906 9.710938 19.644531 9.066406 C 19.910156 8.425781 20.238281 7.816406 20.625 7.238281 C 21.011719 6.660156 21.449219 6.125 21.941406 5.632812 C 22.433594 5.140625 22.96875 4.699219 23.546875 4.316406 C 24.125 3.929688 24.734375 3.601562 25.375 3.335938 C 26.019531 3.070312 26.679688 2.867188 27.363281 2.730469 C 28.042969 2.59375 28.734375 2.527344 29.429688 2.523438 Z M 10.722656 41.570312 L 4.898438 35.507812 L 10.722656 35.507812 Z M 11.953125 42.449219 L 11.953125 34.898438 C 11.953125 34.558594 11.714844 34.277344 11.375 34.277344 L 4.042969 34.277344 L 4.042969 7.996094 L 18.761719 7.996094 C 17.992188 9.613281 17.605469 11.320312 17.605469 13.109375 C 17.605469 19.632812 22.898438 24.941406 29.417969 24.941406 C 29.988281 24.941406 30.550781 24.902344 31.113281 24.820312 L 31.113281 42.449219 Z M 11.953125 42.449219 " clip-rule="nonzero"/></clipPath><linearGradient x1="255.925" gradientTransform="matrix(0.0878906, 0, 0, 0.0878906, 0.0000005, 0)" y1="14.634017" x2="255.925" gradientUnits="userSpaceOnUse" y2="497.053663" id="9c8b3c1279"><stop stop-opacity="1" stop-color="rgb(21.199036%, 38.798523%, 84.698486%)" offset="0"/><stop stop-opacity="1" stop-color="rgb(21.194458%, 38.806152%, 84.701538%)" offset="0.015625"/><stop stop-opacity="1" stop-color="rgb(21.109009%, 38.983154%, 84.764099%)" offset="0.0234375"/><stop stop-opacity="1" stop-color="rgb(20.944214%, 39.318848%, 84.883118%)" offset="0.03125"/><stop stop-opacity="1" stop-color="rgb(20.779419%, 39.654541%, 85.002136%)" offset="0.0390625"/><stop stop-opacity="1" stop-color="rgb(20.614624%, 39.990234%, 85.121155%)" offset="0.046875"/><stop stop-opacity="1" stop-color="rgb(20.449829%, 40.327454%, 85.240173%)" offset="0.0546875"/><stop stop-opacity="1" stop-color="rgb(20.285034%, 40.663147%, 85.359192%)" offset="0.0625"/><stop stop-opacity="1" stop-color="rgb(20.120239%, 40.99884%, 85.47821%)" offset="0.0703125"/><stop stop-opacity="1" stop-color="rgb(19.953918%, 41.334534%, 85.597229%)" offset="0.078125"/><stop stop-opacity="1" stop-color="rgb(19.789124%, 41.671753%, 85.716248%)" offset="0.0859375"/><stop stop-opacity="1" stop-color="rgb(19.624329%, 42.007446%, 85.835266%)" offset="0.09375"/><stop stop-opacity="1" stop-color="rgb(19.459534%, 42.34314%, 85.954285%)" offset="0.101562"/><stop stop-opacity="1" stop-color="rgb(19.294739%, 42.680359%, 86.073303%)" offset="0.109375"/><stop stop-opacity="1" stop-color="rgb(19.129944%, 43.016052%, 86.192322%)" offset="0.117188"/><stop stop-opacity="1" stop-color="rgb(18.965149%, 43.351746%, 86.31134%)" offset="0.125"/><stop stop-opacity="1" stop-color="rgb(18.800354%, 43.687439%, 86.430359%)" offset="0.132812"/><stop stop-opacity="1" stop-color="rgb(18.635559%, 44.024658%, 86.549377%)" offset="0.140625"/><stop stop-opacity="1" stop-color="rgb(18.470764%, 44.360352%, 86.668396%)" offset="0.148438"/><stop stop-opacity="1" stop-color="rgb(18.304443%, 44.696045%, 86.787415%)" offset="0.15625"/><stop stop-opacity="1" stop-color="rgb(18.139648%, 45.031738%, 86.906433%)" offset="0.164062"/><stop stop-opacity="1" stop-color="rgb(17.974854%, 45.368958%, 87.025452%)" offset="0.171875"/><stop stop-opacity="1" stop-color="rgb(17.810059%, 45.704651%, 87.14447%)" offset="0.179688"/><stop stop-opacity="1" stop-color="rgb(17.645264%, 46.040344%, 87.263489%)" offset="0.1875"/><stop stop-opacity="1" stop-color="rgb(17.480469%, 46.377563%, 87.382507%)" offset="0.195312"/><stop stop-opacity="1" stop-color="rgb(17.315674%, 46.713257%, 87.501526%)" offset="0.203125"/><stop stop-opacity="1" stop-color="rgb(17.150879%, 47.04895%, 87.620544%)" offset="0.210938"/><stop stop-opacity="1" stop-color="rgb(16.986084%, 47.384644%, 87.739563%)" offset="0.21875"/><stop stop-opacity="1" stop-color="rgb(16.821289%, 47.721863%, 87.858582%)" offset="0.226562"/><stop stop-opacity="1" stop-color="rgb(16.654968%, 48.057556%, 87.9776%)" offset="0.234375"/><stop stop-opacity="1" stop-color="rgb(16.490173%, 48.39325%, 88.096619%)" offset="0.242188"/><stop stop-opacity="1" stop-color="rgb(16.325378%, 48.728943%, 88.215637%)" offset="0.25"/><stop stop-opacity="1" stop-color="rgb(16.160583%, 49.066162%, 88.334656%)" offset="0.257813"/><stop stop-opacity="1" stop-color="rgb(15.995789%, 49.401855%, 88.453674%)" offset="0.265625"/><stop stop-opacity="1" stop-color="rgb(15.830994%, 49.737549%, 88.572693%)" offset="0.273438"/><stop stop-opacity="1" stop-color="rgb(15.666199%, 50.074768%, 88.691711%)" offset="0.28125"/><stop stop-opacity="1" stop-color="rgb(15.501404%, 50.410461%, 88.812256%)" offset="0.289062"/><stop stop-opacity="1" stop-color="rgb(15.336609%, 50.746155%, 88.931274%)" offset="0.296875"/><stop stop-opacity="1" stop-color="rgb(15.171814%, 51.081848%, 89.050293%)" offset="0.304688"/><stop stop-opacity="1" stop-color="rgb(15.007019%, 51.419067%, 89.169312%)" offset="0.3125"/><stop stop-opacity="1" stop-color="rgb(14.840698%, 51.754761%, 89.28833%)" offset="0.320312"/><stop stop-opacity="1" stop-color="rgb(14.675903%, 52.090454%, 89.407349%)" offset="0.328125"/><stop stop-opacity="1" stop-color="rgb(14.511108%, 52.426147%, 89.526367%)" offset="0.335938"/><stop stop-opacity="1" stop-color="rgb(14.346313%, 52.763367%, 89.645386%)" offset="0.34375"/><stop stop-opacity="1" stop-color="rgb(14.181519%, 53.09906%, 89.764404%)" offset="0.351562"/><stop stop-opacity="1" stop-color="rgb(14.016724%, 53.434753%, 89.883423%)" offset="0.359375"/><stop stop-opacity="1" stop-color="rgb(13.851929%, 53.771973%, 90.002441%)" offset="0.367188"/><stop stop-opacity="1" stop-color="rgb(13.687134%, 54.107666%, 90.12146%)" offset="0.375"/><stop stop-opacity="1" stop-color="rgb(13.522339%, 54.443359%, 90.240479%)" offset="0.382812"/><stop stop-opacity="1" stop-color="rgb(13.357544%, 54.779053%, 90.359497%)" offset="0.390625"/><stop stop-opacity="1" stop-color="rgb(13.191223%, 55.116272%, 90.478516%)" offset="0.398438"/><stop stop-opacity="1" stop-color="rgb(13.026428%, 55.451965%, 90.597534%)" offset="0.40625"/><stop stop-opacity="1" stop-color="rgb(12.861633%, 55.787659%, 90.716553%)" offset="0.414062"/><stop stop-opacity="1" stop-color="rgb(12.696838%, 56.123352%, 90.835571%)" offset="0.421875"/><stop stop-opacity="1" stop-color="rgb(12.532043%, 56.460571%, 90.95459%)" offset="0.429688"/><stop stop-opacity="1" stop-color="rgb(12.367249%, 56.796265%, 91.073608%)" offset="0.4375"/><stop stop-opacity="1" stop-color="rgb(12.202454%, 57.131958%, 91.192627%)" offset="0.445312"/><stop stop-opacity="1" stop-color="rgb(12.037659%, 57.469177%, 91.311646%)" offset="0.453125"/><stop stop-opacity="1" stop-color="rgb(11.872864%, 57.804871%, 91.430664%)" offset="0.460938"/><stop stop-opacity="1" stop-color="rgb(11.708069%, 58.140564%, 91.549683%)" offset="0.46875"/><stop stop-opacity="1" stop-color="rgb(11.541748%, 58.476257%, 91.668701%)" offset="0.476562"/><stop stop-opacity="1" stop-color="rgb(11.376953%, 58.813477%, 91.78772%)" offset="0.484375"/><stop stop-opacity="1" stop-color="rgb(11.212158%, 59.14917%, 91.906738%)" offset="0.492188"/><stop stop-opacity="1" stop-color="rgb(11.047363%, 59.484863%, 92.025757%)" offset="0.5"/><stop stop-opacity="1" stop-color="rgb(10.882568%, 59.820557%, 92.144775%)" offset="0.507812"/><stop stop-opacity="1" stop-color="rgb(10.717773%, 60.157776%, 92.263794%)" offset="0.515625"/><stop stop-opacity="1" stop-color="rgb(10.552979%, 60.493469%, 92.382812%)" offset="0.523438"/><stop stop-opacity="1" stop-color="rgb(10.388184%, 60.829163%, 92.501831%)" offset="0.53125"/><stop stop-opacity="1" stop-color="rgb(10.223389%, 61.166382%, 92.62085%)" offset="0.539063"/><stop stop-opacity="1" stop-color="rgb(10.058594%, 61.502075%, 92.739868%)" offset="0.546875"/><stop stop-opacity="1" stop-color="rgb(9.892273%, 61.837769%, 92.858887%)" offset="0.554688"/><stop stop-opacity="1" stop-color="rgb(9.727478%, 62.173462%, 92.977905%)" offset="0.5625"/><stop stop-opacity="1" stop-color="rgb(9.562683%, 62.510681%, 93.096924%)" offset="0.570312"/><stop stop-opacity="1" stop-color="rgb(9.397888%, 62.846375%, 93.215942%)" offset="0.578125"/><stop stop-opacity="1" stop-color="rgb(9.233093%, 63.182068%, 93.334961%)" offset="0.585937"/><stop stop-opacity="1" stop-color="rgb(9.068298%, 63.519287%, 93.453979%)" offset="0.59375"/><stop stop-opacity="1" stop-color="rgb(8.903503%, 63.85498%, 93.572998%)" offset="0.601563"/><stop stop-opacity="1" stop-color="rgb(8.738708%, 64.190674%, 93.692017%)" offset="0.609375"/><stop stop-opacity="1" stop-color="rgb(8.573914%, 64.526367%, 93.811035%)" offset="0.617188"/><stop stop-opacity="1" stop-color="rgb(8.409119%, 64.863586%, 93.930054%)" offset="0.625"/><stop stop-opacity="1" stop-color="rgb(8.244324%, 65.19928%, 94.049072%)" offset="0.632812"/><stop stop-opacity="1" stop-color="rgb(8.078003%, 65.534973%, 94.168091%)" offset="0.640625"/><stop stop-opacity="1" stop-color="rgb(7.913208%, 65.870667%, 94.287109%)" offset="0.648437"/><stop stop-opacity="1" stop-color="rgb(7.748413%, 66.207886%, 94.406128%)" offset="0.65625"/><stop stop-opacity="1" stop-color="rgb(7.583618%, 66.543579%, 94.525146%)" offset="0.664063"/><stop stop-opacity="1" stop-color="rgb(7.418823%, 66.879272%, 94.644165%)" offset="0.671875"/><stop stop-opacity="1" stop-color="rgb(7.254028%, 67.216492%, 94.763184%)" offset="0.679688"/><stop stop-opacity="1" stop-color="rgb(7.089233%, 67.552185%, 94.882202%)" offset="0.6875"/><stop stop-opacity="1" stop-color="rgb(6.924438%, 67.887878%, 95.001221%)" offset="0.695312"/><stop stop-opacity="1" stop-color="rgb(6.759644%, 68.223572%, 95.120239%)" offset="0.703125"/><stop stop-opacity="1" stop-color="rgb(6.594849%, 68.560791%, 95.239258%)" offset="0.710937"/><stop stop-opacity="1" stop-color="rgb(6.428528%, 68.896484%, 95.358276%)" offset="0.71875"/><stop stop-opacity="1" stop-color="rgb(6.263733%, 69.232178%, 95.477295%)" offset="0.726563"/><stop stop-opacity="1" stop-color="rgb(6.098938%, 69.567871%, 95.596313%)" offset="0.734375"/><stop stop-opacity="1" stop-color="rgb(5.934143%, 69.90509%, 95.715332%)" offset="0.742188"/><stop stop-opacity="1" stop-color="rgb(5.769348%, 70.240784%, 95.834351%)" offset="0.75"/><stop stop-opacity="1" stop-color="rgb(5.604553%, 70.576477%, 95.953369%)" offset="0.757812"/><stop stop-opacity="1" stop-color="rgb(5.439758%, 70.913696%, 96.072388%)" offset="0.765625"/><stop stop-opacity="1" stop-color="rgb(5.274963%, 71.24939%, 96.191406%)" offset="0.773437"/><stop stop-opacity="1" stop-color="rgb(5.110168%, 71.585083%, 96.310425%)" offset="0.78125"/><stop stop-opacity="1" stop-color="rgb(4.945374%, 71.920776%, 96.429443%)" offset="0.789063"/><stop stop-opacity="1" stop-color="rgb(4.779053%, 72.257996%, 96.548462%)" offset="0.796875"/><stop stop-opacity="1" stop-color="rgb(4.614258%, 72.593689%, 96.66748%)" offset="0.804688"/><stop stop-opacity="1" stop-color="rgb(4.449463%, 72.929382%, 96.786499%)" offset="0.8125"/><stop stop-opacity="1" stop-color="rgb(4.284668%, 73.265076%, 96.905518%)" offset="0.820312"/><stop stop-opacity="1" stop-color="rgb(4.119873%, 73.602295%, 97.024536%)" offset="0.828125"/><stop stop-opacity="1" stop-color="rgb(3.955078%, 73.937988%, 97.143555%)" offset="0.835937"/><stop stop-opacity="1" stop-color="rgb(3.790283%, 74.273682%, 97.262573%)" offset="0.84375"/><stop stop-opacity="1" stop-color="rgb(3.625488%, 74.610901%, 97.381592%)" offset="0.851563"/><stop stop-opacity="1" stop-color="rgb(3.460693%, 74.946594%, 97.502136%)" offset="0.859375"/><stop stop-opacity="1" stop-color="rgb(3.295898%, 75.282288%, 97.621155%)" offset="0.867188"/><stop stop-opacity="1" stop-color="rgb(3.129578%, 75.617981%, 97.740173%)" offset="0.875"/><stop stop-opacity="1" stop-color="rgb(2.964783%, 75.9552%, 97.859192%)" offset="0.882812"/><stop stop-opacity="1" stop-color="rgb(2.799988%, 76.290894%, 97.97821%)" offset="0.890625"/><stop stop-opacity="1" stop-color="rgb(2.635193%, 76.626587%, 98.097229%)" offset="0.898437"/><stop stop-opacity="1" stop-color="rgb(2.470398%, 76.96228%, 98.216248%)" offset="0.90625"/><stop stop-opacity="1" stop-color="rgb(2.305603%, 77.2995%, 98.335266%)" offset="0.914063"/><stop stop-opacity="1" stop-color="rgb(2.140808%, 77.635193%, 98.454285%)" offset="0.921875"/><stop stop-opacity="1" stop-color="rgb(1.976013%, 77.970886%, 98.573303%)" offset="0.929688"/><stop stop-opacity="1" stop-color="rgb(1.811218%, 78.308105%, 98.692322%)" offset="0.9375"/><stop stop-opacity="1" stop-color="rgb(1.646423%, 78.643799%, 98.81134%)" offset="0.945312"/><stop stop-opacity="1" stop-color="rgb(1.481628%, 78.979492%, 98.930359%)" offset="0.953125"/><stop stop-opacity="1" stop-color="rgb(1.315308%, 79.315186%, 99.049377%)" offset="0.960937"/><stop stop-opacity="1" stop-color="rgb(1.150513%, 79.652405%, 99.168396%)" offset="0.96875"/><stop stop-opacity="1" stop-color="rgb(0.985718%, 79.988098%, 99.287415%)" offset="0.976563"/><stop stop-opacity="1" stop-color="rgb(0.820923%, 80.323792%, 99.406433%)" offset="0.984375"/><stop stop-opacity="1" stop-color="rgb(0.656128%, 80.659485%, 99.525452%)" offset="0.992188"/><stop stop-opacity="1" stop-color="rgb(0.491333%, 80.996704%, 99.64447%)" offset="1"/></linearGradient></defs><g clip-path="url(#a09412da93)"><g clip-path="url(#6f47d980ec)"><path fill="url(#217e0fdc8d)" d="M 8.546875 30.320312 L 8.546875 31.550781 L 27.648438 31.550781 L 27.648438 30.320312 Z M 8.546875 30.320312 " fill-rule="nonzero"/></g></g><g clip-path="url(#00fcf947b5)"><g clip-path="url(#2b36ded124)"><path fill="url(#2414bf463f)" d="M 8.546875 25.222656 L 8.546875 26.453125 L 19.90625 26.453125 L 19.90625 25.222656 Z M 8.546875 25.222656 " fill-rule="nonzero"/></g></g><g clip-path="url(#0220c348b7)"><g clip-path="url(#ade2c454aa)"><path fill="url(#c24859b085)" d="M 23.730469 5.617188 L 23.730469 20.652344 L 35.335938 20.652344 L 35.335938 5.617188 Z M 23.730469 5.617188 " fill-rule="nonzero"/></g></g><g clip-path="url(#57bae07cb5)"><g clip-path="url(#3d5a1e7260)"><path fill="url(#9b6b43ca31)" d="M 28.050781 14.339844 L 28.050781 18.457031 L 30.953125 18.457031 L 30.953125 14.339844 Z M 28.050781 14.339844 " fill-rule="nonzero"/></g></g><g clip-path="url(#f8e3469e7e)"><g clip-path="url(#5e876239a9)"><path fill="url(#9c8b3c1279)" d="M 2.8125 1.285156 L 2.8125 43.6875 L 42.171875 43.6875 L 42.171875 1.285156 Z M 2.8125 1.285156 " fill-rule="nonzero"/></g></g></svg>